<?xml version="1.0" encoding="UTF-8" standalone="no"?>
<!-- Created with Inkscape (http://www.inkscape.org/) -->

<svg
   xmlns:dc="http://purl.org/dc/elements/1.1/"
   xmlns:cc="http://creativecommons.org/ns#"
   xmlns:rdf="http://www.w3.org/1999/02/22-rdf-syntax-ns#"
   xmlns:svg="http://www.w3.org/2000/svg"
   xmlns="http://www.w3.org/2000/svg"
   xmlns:sodipodi="http://sodipodi.sourceforge.net/DTD/sodipodi-0.dtd"
   xmlns:inkscape="http://www.inkscape.org/namespaces/inkscape"
   version="1.1"
   id="svg2"
   xml:space="preserve"
   width="32"
   height="32"
   viewBox="0 0 32 32"
   sodipodi:docname="music.svg"
   inkscape:version="0.92.2 5c3e80d, 2017-08-06"><metadata
     id="metadata8"><rdf:RDF><cc:Work
         rdf:about=""><dc:format>image/svg+xml</dc:format><dc:type
           rdf:resource="http://purl.org/dc/dcmitype/StillImage" /></cc:Work></rdf:RDF></metadata><defs
     id="defs6"><clipPath
       clipPathUnits="userSpaceOnUse"
       id="clipPath20"><path
         d="M 20,22 H 8 C 6.9,22 6,21.1 6,20 V 8 C 6,6.9 6.9,6 8,6 h 12 c 1.1,0 2,0.9 2,2 v 12 c 0,1.1 -0.9,2 -2,2 z M 18,17 H 15 V 11.5 C 15,10.12 13.88,9 12.5,9 11.12,9 10,10.12 10,11.5 c 0,1.38 1.12,2.5 2.5,2.5 0.57,0 1.08,-0.19 1.5,-0.51 V 19 h 4 z M 4,18 H 2 V 4 C 2,2.9 2.9,2 4,2 H 18 V 4 H 4 Z"
         id="path18"
         inkscape:connector-curvature="0" /></clipPath><clipPath
       clipPathUnits="userSpaceOnUse"
       id="clipPath26"><path
         d="M -3,-3 H 27 V 27 H -3 Z"
         id="path24"
         inkscape:connector-curvature="0" /></clipPath><clipPath
       clipPathUnits="userSpaceOnUse"
       id="clipPath30"><path
         d="M 2,2 H 22 V 22 H 2 Z"
         id="path28"
         inkscape:connector-curvature="0" /></clipPath><clipPath
       clipPathUnits="userSpaceOnUse"
       id="clipPath34"><path
         d="M 0,24 H 24 V 0 H 0 Z"
         id="path32"
         inkscape:connector-curvature="0"
         style="clip-rule:evenodd" /></clipPath><clipPath
       clipPathUnits="userSpaceOnUse"
       id="clipPath38"><path
         d="M 2,2 H 22 V 22 H 2 Z"
         id="path36"
         inkscape:connector-curvature="0" /></clipPath></defs><sodipodi:namedview
     pagecolor="#ffffff"
     bordercolor="#666666"
     borderopacity="1"
     objecttolerance="10"
     gridtolerance="10"
     guidetolerance="10"
     inkscape:pageopacity="0"
     inkscape:pageshadow="2"
     inkscape:window-width="1140"
     inkscape:window-height="844"
     id="namedview4"
     showgrid="false"
     inkscape:zoom="7.375"
     inkscape:cx="14.983051"
     inkscape:cy="16"
     inkscape:window-x="0"
     inkscape:window-y="0"
     inkscape:window-maximized="0"
     inkscape:current-layer="g10" /><g
     id="g10"
     inkscape:groupmode="layer"
     inkscape:label="music"
     transform="matrix(1.3333333,0,0,-1.3333333,0,32)"><g
       id="g12" /><g
       id="g14"
       style="fill:#ff7c00;fill-opacity:1"><g
         id="g16"
         clip-path="url(#clipPath20)"
         style="fill:#ff7c00;fill-opacity:1"><g
           id="g22"
           style="fill:#ff7c00;fill-opacity:1" /><g
           id="g58"
           style="fill:#ff7c00;fill-opacity:1"><g
             clip-path="url(#clipPath26)"
             id="g56"
             style="fill:#ff7c00;fill-opacity:1"><g
               id="g40"
               style="fill:#ff7c00;fill-opacity:1" /><g
               id="g46"
               style="fill:#ff7c00;fill-opacity:1"><g
                 clip-path="url(#clipPath30)"
                 id="g44"
                 style="fill:#ff7c00;fill-opacity:1"><path
                   d="M -3,-3 H 27 V 27 H -3 Z"
                   style="fill:#ff7c00;fill-opacity:1;fill-rule:nonzero;stroke:none"
                   id="path42"
                   inkscape:connector-curvature="0" /></g></g><g
               id="g54"
               style="fill:#ff7c00;fill-opacity:1"><g
                 clip-path="url(#clipPath34)"
                 id="g52"
                 style="fill:#ff7c00;fill-opacity:1"><g
                   clip-path="url(#clipPath38)"
                   id="g50"
                   style="fill:#ff7c00;fill-opacity:1"><path
                     d="M -5,-5 H 29 V 29 H -5 Z"
                     style="fill:#ff7c00;fill-opacity:1;fill-rule:nonzero;stroke:none"
                     id="path48"
                     inkscape:connector-curvature="0" /></g></g></g></g></g></g></g></g></svg>