<?xml version="1.0" encoding="UTF-8" standalone="no"?>
<svg width="30px" height="30px" viewBox="0 0 30 30" version="1.1" xmlns="http://www.w3.org/2000/svg" xmlns:xlink="http://www.w3.org/1999/xlink">
    <!-- Generator: Sketch 41.2 (35397) - http://www.bohemiancoding.com/sketch -->
    <title>login-top-nav</title>
    <desc>Created with Sketch.</desc>
    <defs>
        <polygon id="path-1" points="12.3338092 12.0993642 12.3338092 0.0452697531 0.0221413975 0.0452697531 0.0221413975 12.0993642 12.3338092 12.0993642"></polygon>
        <polygon id="path-3" points="1.83480368e-21 0.0187882716 1.83480368e-21 12.4259056 13.1686991 12.4259056 13.1686991 0.0187882716 0 0.0187882716"></polygon>
        <polygon id="path-5" points="7.24960246 0.0527592593 0.0443655385 0.0527592593 0.0443655385 5.71054136 7.24960246 5.71054136 7.24960246 0.0527592593"></polygon>
    </defs>
    <g id="Symbols" stroke="none" stroke-width="1" fill="none" fill-rule="evenodd">
        <g id="login-top-nav">
            <g id="Group-6">
                <circle id="Oval-83-Copy" fill="#FFFFFF" cx="15" cy="15" r="15"></circle>
                <g id="Page-1-Copy" transform="translate(4.000000, 8.000000)">
                    <path d="M15.4025588,2.81041173 C15.4025588,3.67920802 14.5488911,4.38347963 13.4958695,4.38347963 C12.442848,4.38347963 11.589248,3.67920802 11.589248,2.81041173 C11.589248,1.94161543 12.442848,1.23734383 13.4958695,1.23734383 C14.5488911,1.23734383 15.4025588,1.94161543 15.4025588,2.81041173" id="Fill-1" fill="#BC4B52"></path>
                    <g id="Group-5" transform="translate(10.000000, 1.000000)">
                        <mask id="mask-2" fill="white">
                            <use xlink:href="#path-1"></use>
                        </mask>
                        <g id="Clip-4"></g>
                        <path d="M11.6569132,0.0452697531 C4.63945477,3.50823272 3.49484554,6.97567716 4.662064,8.1934179 C6.34469169,9.94893642 12.0116209,4.77975123 12.3338363,4.41355988 C6.69283323,11.8374735 1.91131938,13.1629735 0.228624,11.407387 C-1.28132062,9.83201049 5.790224,0.950596914 11.6569132,0.0452697531" id="Fill-3" fill="#D45C66" mask="url(#mask-2)"></path>
                    </g>
                    <g id="Group-8" transform="translate(0.000000, 2.187981)">
                        <mask id="mask-4" fill="white">
                            <use xlink:href="#path-3"></use>
                        </mask>
                        <g id="Clip-7"></g>
                        <path d="M5.43783138,0.0187882716 C8.27501908,1.13250432 10.4610068,2.57459074 10.4610068,5.11525123 C10.4610068,8.77777593 6.44536369,11.7468932 1.491776,11.7468932 C0.983474462,11.7468932 0.485259077,11.7151833 -2.70769231e-05,11.6550907 C1.25295754,12.1468994 2.68200985,12.4259056 4.19946831,12.4259056 C9.153056,12.4259056 13.1686991,9.45678827 13.1686991,5.79426358 C13.1686991,2.50750432 10.3506006,0.0187882716 5.43783138,0.0187882716" id="Fill-6" fill="#BC4B52" mask="url(#mask-4)"></path>
                    </g>
                    <path d="M9.52521477,4.65044691 C9.59656246,5.0072 9.63447015,5.37603951 9.63447015,5.75384198 C9.63447015,8.83567531 7.55394708,11.4904778 4.48152862,11.4904778 C3.82850092,11.4904778 2.98776246,10.8829654 2.40560862,10.675663 L1.04641477,12.6016815 C1.77789785,12.8922988 2.575584,13.0262679 3.40975631,13.0522062 C7.05383631,13.1653296 9.82922092,10.1691877 9.82922092,6.61286049 C9.82922092,5.92848395 9.72240246,5.26923086 9.52521477,4.65044691" id="Fill-9" fill="#2B1E17"></path>
                    <g id="Group-13" transform="translate(14.283077, 0.015142)">
                        <mask id="mask-6" fill="white">
                            <use xlink:href="#path-5"></use>
                        </mask>
                        <g id="Clip-12"></g>
                        <path d="M7.24960246,0.0527388889 C4.030224,1.22220185 1.31129477,3.32883765 0.0443655385,5.71054136 C2.96474708,2.83512778 5.35340554,1.8900784 7.07637785,1.46943025 L7.24960246,0.0527388889 Z" id="Fill-11" fill="#2B1E17" mask="url(#mask-6)"></path>
                    </g>
                </g>
            </g>
        </g>
    </g>
</svg>