<?xml version="1.0" encoding="UTF-8" standalone="no"?>
<svg width="28px" height="30px" viewBox="0 0 28 30" version="1.1" xmlns="http://www.w3.org/2000/svg" xmlns:xlink="http://www.w3.org/1999/xlink">
    <!-- Generator: Sketch 41.2 (35397) - http://www.bohemiancoding.com/sketch -->
    <title>login-guest</title>
    <desc>Created with Sketch.</desc>
    <defs></defs>
    <g id="Symbols" stroke="none" stroke-width="1" fill="none" fill-rule="evenodd">
        <g id="login-guest" fill="#FFFFFF">
            <path d="M9.49275703,11.144713 C7.12318392,11.144713 2.21684071,13.2239664 2.21684071,16.2772189 C2.21684071,17.8283009 3.80560621,21.4743983 5.61453862,24.7188801 C7.42347103,27.9633619 6.7153455,27.3123859 7.45700842,28.229734 C8.59239137,29.6340667 10.1492284,30 10.7769165,30 C12.8861269,30 13.656167,27.705049 13.656167,26.339412 C13.656167,24.9737751 12.1420548,23.3679141 11.6895523,21.0730751 C11.2370499,18.7782361 13.4898812,16.5778068 13.4898812,14.6078581 C13.4898812,12.6379095 11.8623301,11.144713 9.49275703,11.144713 Z M0.8163951,15.5965282 C0.365512536,15.5965282 0,15.2371192 0,14.7937657 C0,14.3504123 0.365512536,13.9910033 0.8163951,13.9910033 C1.26727766,13.9910033 1.6327902,14.3504123 1.6327902,14.7937657 C1.6327902,15.2371192 1.26727766,15.5965282 0.8163951,15.5965282 Z M1.69110414,13.5322818 C1.14360388,13.5322818 0.699767228,13.0958566 0.699767228,12.5574988 C0.699767228,12.019141 1.14360388,11.5827158 1.69110414,11.5827158 C2.23860439,11.5827158 2.68244104,12.019141 2.68244104,12.5574988 C2.68244104,13.0958566 2.23860439,13.5322818 1.69110414,13.5322818 Z M3.2655804,11.8120765 C2.62146245,11.8120765 2.09930168,11.2986351 2.09930168,10.665273 C2.09930168,10.0319109 2.62146245,9.51846944 3.2655804,9.51846944 C3.90969835,9.51846944 4.43185911,10.0319109 4.43185911,10.665273 C4.43185911,11.2986351 3.90969835,11.8120765 3.2655804,11.8120765 Z M5.8897075,10.5505926 C5.02014828,10.5505926 4.31523124,9.85744669 4.31523124,9.00240784 C4.31523124,8.14736899 5.02014828,7.45422305 5.8897075,7.45422305 C6.75926673,7.45422305 7.46418377,8.14736899 7.46418377,9.00240784 C7.46418377,9.85744669 6.75926673,10.5505926 5.8897075,10.5505926 Z M10.0299969,9.8625105 C8.87058463,9.8625105 7.93069525,8.93831591 7.93069525,7.79826412 C7.93069525,6.65821232 8.87058463,5.73401773 10.0299969,5.73401773 C11.1894092,5.73401773 12.1292986,6.65821232 12.1292986,7.79826412 C12.1292986,8.93831591 11.1894092,9.8625105 10.0299969,9.8625105 Z M18.507243,5.41069529 C20.8768161,5.41069529 25.7831593,7.48994867 25.7831593,10.5432011 C25.7831593,12.0942832 24.1943938,15.7403805 22.3854614,18.9848623 C20.576529,22.2293441 21.2846545,21.5783681 20.5429916,22.4957163 C19.4076086,23.9000489 17.8507716,24.2659823 17.2230835,24.2659823 C15.1138731,24.2659823 14.343833,21.9710313 14.343833,20.6053943 C14.343833,19.2397573 15.8579452,17.6338964 16.3104477,15.3390574 C16.7629501,13.0442184 14.5101188,10.8437891 14.5101188,8.87384041 C14.5101188,6.90389174 16.1376699,5.41069529 18.507243,5.41069529 Z M27.1836049,9.8625105 C27.6344875,9.8625105 28,9.50310149 28,9.05974802 C28,8.61639454 27.6344875,8.25698553 27.1836049,8.25698553 C26.7327223,8.25698553 26.3672098,8.61639454 26.3672098,9.05974802 C26.3672098,9.50310149 26.7327223,9.8625105 27.1836049,9.8625105 Z M26.3088959,7.79826412 C26.8563961,7.79826412 27.3002328,7.36183889 27.3002328,6.8234811 C27.3002328,6.28512331 26.8563961,5.84869809 26.3088959,5.84869809 C25.7613956,5.84869809 25.317559,6.28512331 25.317559,6.8234811 C25.317559,7.36183889 25.7613956,7.79826412 26.3088959,7.79826412 Z M24.7344196,6.0780588 C25.3785375,6.0780588 25.9006983,5.56461736 25.9006983,4.93125525 C25.9006983,4.29789314 25.3785375,3.7844517 24.7344196,3.7844517 C24.0903017,3.7844517 23.5681409,4.29789314 23.5681409,4.93125525 C23.5681409,5.56461736 24.0903017,6.0780588 24.7344196,6.0780588 Z M22.1102925,4.8165749 C22.9798517,4.8165749 23.6847688,4.12342896 23.6847688,3.26839011 C23.6847688,2.41335126 22.9798517,1.72020532 22.1102925,1.72020532 C21.2407333,1.72020532 20.5358162,2.41335126 20.5358162,3.26839011 C20.5358162,4.12342896 21.2407333,4.8165749 22.1102925,4.8165749 Z M17.9700031,4.12849277 C19.1294154,4.12849277 20.0693047,3.20429818 20.0693047,2.06424638 C20.0693047,0.924194586 19.1294154,0 17.9700031,0 C16.8105908,0 15.8707014,0.924194586 15.8707014,2.06424638 C15.8707014,3.20429818 16.8105908,4.12849277 17.9700031,4.12849277 Z" id="Combined-Shape"></path>
        </g>
    </g>
</svg>