<?xml version="1.0" encoding="UTF-8" standalone="no"?>
<!-- Created with Inkscape (http://www.inkscape.org/) -->

<svg
   xmlns:dc="http://purl.org/dc/elements/1.1/"
   xmlns:cc="http://creativecommons.org/ns#"
   xmlns:rdf="http://www.w3.org/1999/02/22-rdf-syntax-ns#"
   xmlns:svg="http://www.w3.org/2000/svg"
   xmlns="http://www.w3.org/2000/svg"
   xmlns:sodipodi="http://sodipodi.sourceforge.net/DTD/sodipodi-0.dtd"
   xmlns:inkscape="http://www.inkscape.org/namespaces/inkscape"
   id="svg2"
   xml:space="preserve"
   height="142.5"
   viewBox="0 0 202.5 142.5"
   width="202.5"
   version="1.1"
   inkscape:version="0.91 r13725"
   sodipodi:docname="logo.svg"
   inkscape:export-filename="/Users/michaelkrzyzaniak/IC_APP_3/build/www/images/logo.png"
   inkscape:export-xdpi="200"
   inkscape:export-ydpi="200"><sodipodi:namedview
     pagecolor="#ffffff"
     bordercolor="#666666"
     borderopacity="1"
     objecttolerance="10"
     gridtolerance="10"
     guidetolerance="10"
     inkscape:pageopacity="0"
     inkscape:pageshadow="2"
     inkscape:window-width="1149"
     inkscape:window-height="592"
     id="namedview31"
     showgrid="false"
     inkscape:zoom="1.4518519"
     inkscape:cx="101.25"
     inkscape:cy="71.25"
     inkscape:window-x="322"
     inkscape:window-y="74"
     inkscape:window-maximized="0"
     inkscape:current-layer="svg2" /><metadata
     id="metadata8"><rdf:RDF><cc:Work
         rdf:about=""><dc:format>image/svg+xml</dc:format><dc:type
           rdf:resource="http://purl.org/dc/dcmitype/StillImage" /><dc:title /></cc:Work></rdf:RDF></metadata><defs
     id="defs6"><clipPath
       id="clipPath18"
       clipPathUnits="userSpaceOnUse"><path
         id="path20"
         clip-rule="evenodd"
         d="m155.9 94.66s-19.288-9.106-33.88-21.599c-15.786-13.517-26.686-30.845-18.543-40.666 5.968-7.198 20.285-0.928 28.577 4.084 20.492 12.385 29.594 22.547 29.594 22.547s-29.594-45.466-69.749-56.902c0 0-14.118-4.081-21.556 1.488 0 0-4.727 4.004-3.094 9.72 0 0 3.252 20.057 35.951 50.534 0 0 23.318 24.473 52.7 30.794" /></clipPath><clipPath
       id="clipPath28"
       clipPathUnits="userSpaceOnUse"><path
         id="path30"
         clip-rule="evenodd"
         d="m33.24 97.2s61.072 0 59.802-41.271c-1.086-35.319-38.413-60.636-90.478-54.604 0 0 59.367 8.703 67.303 44.128 9.826 43.855-31.23 50.477-36.627 51.747" /></clipPath><clipPath
       id="clipPath38"
       clipPathUnits="userSpaceOnUse"><path
         id="path40"
         clip-rule="evenodd"
         d="m9.4759 29.479-9.476-13.775s8.369-5.09 24.477-4.358c9.433 0.429 19.193 5.163 28.412 14.381 0 0 20.091 16.418 14.043 44.17 0 0 1.373-25.887-21.306-40.51-8.479-5.468-18.678-10.52-36.15 0.092" /></clipPath><clipPath
       id="clipPath48"
       clipPathUnits="userSpaceOnUse"><path
         id="path50"
         clip-rule="evenodd"
         d="m102.46 67.732s18.185 34.918 59.188 45.268l-3.875-11.209s-19.762-2.331-55.313-34.059" /></clipPath><clipPath
       id="clipPath58"
       clipPathUnits="userSpaceOnUse"><path
         id="path60"
         clip-rule="evenodd"
         d="m111.68 91.172c0-6.349-6.774-11.496-15.13-11.496s-15.13 5.147-15.13 11.496 6.774 11.496 15.13 11.496 15.13-5.147 15.13-11.496" /></clipPath></defs><g
     style="fill:#ff7c00;fill-opacity:1"
     id="g14"
     transform="matrix(1.25,0,0,-1.25,0,142.5)"><g
       style="fill:#ff7c00;fill-opacity:1"
       clip-path="url(#clipPath18)"
       id="g16"><path
         style="fill:#ff7c00;fill-opacity:1"
         inkscape:connector-curvature="0"
         d="m 61.907,-4.3182 104.74,0 0,103.98 -104.74,0 0,-103.98 z"
         id="path22" /></g></g><g
     style="fill:#025fbc;fill-opacity:1"
     id="g24"
     transform="matrix(1.25,0,0,-1.25,0,142.5)"><g
       style="fill:#025fbc;fill-opacity:1"
       clip-path="url(#clipPath28)"
       id="g26"><path
         style="fill:#025fbc;fill-opacity:1"
         inkscape:connector-curvature="0"
         d="m -2.436,-4.566 100.5,0 0,106.77 -100.5,0 0,-106.77 z"
         id="path32" /></g></g><g
     style="fill:#666666;fill-opacity:1"
     id="g34"
     transform="matrix(1.25,0,0,-1.25,0,142.5)"><g
       style="fill:#666666;fill-opacity:1"
       clip-path="url(#clipPath38)"
       id="g36"><path
         style="fill:#666666;fill-opacity:1"
         inkscape:connector-curvature="0"
         d="m -5.0001,6.2742 78.067,0 0,68.623 -78.067,0 0,-68.623 z"
         id="path42" /></g></g><g
     style="fill:#666666;fill-opacity:1"
     id="g44"
     transform="matrix(1.25,0,0,-1.25,0,142.5)"><g
       style="fill:#666666;fill-opacity:1"
       clip-path="url(#clipPath48)"
       id="g46"><path
         style="fill:#666666;fill-opacity:1"
         inkscape:connector-curvature="0"
         d="m 97.461,62.732 69.188,0 0,55.268 -69.188,0 0,-55.268 z"
         id="path52" /></g></g><g
     style="fill:#025fbc;fill-opacity:1"
     id="g54"
     transform="matrix(1.25,0,0,-1.25,0,142.5)"><g
       style="fill:#025fbc;fill-opacity:1"
       clip-path="url(#clipPath58)"
       id="g56"><path
         style="fill:#025fbc;fill-opacity:1"
         inkscape:connector-curvature="0"
         d="m 76.418,74.676 40.26,0 0,32.992 -40.26,0 0,-32.992 z"
         id="path62" /></g></g></svg>