<?xml version="1.0" encoding="UTF-8" standalone="no"?>
<svg width="80px" height="80px" viewBox="0 0 80 80" version="1.1" xmlns="http://www.w3.org/2000/svg" xmlns:xlink="http://www.w3.org/1999/xlink">
    <!-- Generator: Sketch 41.2 (35397) - http://www.bohemiancoding.com/sketch -->
    <title>logo-152x152</title>
    <desc>Created with Sketch.</desc>
    <defs>
        <polygon id="path-1" points="25.4497233 24.9659667 25.4497233 0.0934101272 0.0456868133 0.0934101272 0.0456868133 24.9659667 25.4497233 24.9659667"></polygon>
        <polygon id="path-3" points="3.78595493e-21 0.0387679349 3.78595493e-21 25.6397559 27.1724446 25.6397559 27.1724446 0.0387679349 0 0.0387679349"></polygon>
        <polygon id="path-5" points="14.9589128 0.10886406 0.0915443604 0.10886406 0.0915443604 11.7831965 14.9589128 11.7831965 14.9589128 0.10886406"></polygon>
    </defs>
    <g id="Symbols" stroke="none" stroke-width="1" fill="none" fill-rule="evenodd">
        <g id="logo-152x152">
            <g id="Group-2" transform="translate(9.000000, 9.000000)">
                <circle id="Oval-83-Copy-2" fill="#FFFFFF" cx="31" cy="31" r="30.9511719"></circle>
                <g id="Page-1-Copy" transform="translate(8.302474, 16.556120)">
                    <path d="M31.7818163,5.79903576 C31.7818163,7.59172 30.0203486,9.0449221 27.8475318,9.0449221 C25.6747151,9.0449221 23.9133871,7.59172 23.9133871,5.79903576 C23.9133871,4.00635153 25.6747151,2.55314943 27.8475318,2.55314943 C30.0203486,2.55314943 31.7818163,4.00635153 31.7818163,5.79903576" id="Fill-1" fill="#BC4B52"></path>
                    <g id="Group-5" transform="translate(20.634115, 2.063411)">
                        <mask id="mask-2" fill="white">
                            <use xlink:href="#path-1"></use>
                        </mask>
                        <g id="Clip-4"></g>
                        <path d="M24.0530083,0.0934101272 C9.57310413,7.23892758 7.21130433,14.3936922 9.61975628,16.9063924 C13.0917095,20.5287494 24.7849162,9.86259347 25.4497792,9.10699002 C13.8100688,24.4255784 3.94383832,27.1606303 0.471745381,23.5381331 C-2.64389164,20.2874831 11.9476145,1.96147256 24.0530083,0.0934101272" id="Fill-3" fill="#D45C66" mask="url(#mask-2)"></path>
                    </g>
                    <g id="Group-8" transform="translate(0.000000, 4.514706)">
                        <mask id="mask-4" fill="white">
                            <use xlink:href="#path-3"></use>
                        </mask>
                        <g id="Clip-7"></g>
                        <path d="M11.2204836,0.0387679349 C17.0747692,2.33682239 21.5853612,5.31244003 21.5853612,10.554868 C21.5853612,18.1121634 13.2994373,24.238674 3.07814769,24.238674 C2.02931247,24.238674 1.00128914,24.1732435 -5.58708333e-05,24.0492478 C2.58536694,25.0640514 5.53408985,25.6397559 8.66523103,25.6397559 C18.8865206,25.6397559 27.1724446,19.5132453 27.1724446,11.9559499 C27.1724446,5.17401315 21.3575479,0.0387679349 11.2204836,0.0387679349" id="Fill-6" fill="#BC4B52" mask="url(#mask-4)"></path>
                    </g>
                    <path d="M19.6544373,9.59578545 C19.8016569,10.3319139 19.8798761,11.0929815 19.8798761,11.8725435 C19.8798761,18.2316337 15.586901,23.7095835 9.2472375,23.7095835 C7.89977267,23.7095835 6.1649833,22.4560356 4.96376038,22.0282853 L2.15918422,26.002454 C3.66853479,26.602117 5.31448954,26.8785504 7.03573024,26.9320718 C14.5549667,27.165492 20.2817271,20.9832183 20.2817271,13.6450521 C20.2817271,12.2329017 20.0613166,10.8725913 19.6544373,9.59578545" id="Fill-9" fill="#2B1E17"></path>
                    <g id="Group-13" transform="translate(29.471865, 0.031244)">
                        <mask id="mask-6" fill="white">
                            <use xlink:href="#path-5"></use>
                        </mask>
                        <g id="Clip-12"></g>
                        <path d="M14.9589128,0.108822028 C8.31601038,2.52190531 2.70574065,6.86876176 0.0915443604,11.7831965 C6.11749309,5.85003514 11.0462783,3.90000942 14.6014791,3.03203921 L14.9589128,0.108822028 Z" id="Fill-11" fill="#2B1E17" mask="url(#mask-6)"></path>
                    </g>
                </g>
            </g>
        </g>
    </g>
</svg>