<?xml version="1.0" encoding="UTF-8" standalone="no"?>
<svg width="80px" height="80px" viewBox="0 0 80 80" version="1.1" xmlns="http://www.w3.org/2000/svg" xmlns:xlink="http://www.w3.org/1999/xlink">
    <!-- Generator: Sketch 41.2 (35397) - http://www.bohemiancoding.com/sketch -->
    <title>logo-loginpage</title>
    <desc>Created with Sketch.</desc>
    <defs>
        <polygon id="path-1" points="32.8901579 32.2649712 32.8901579 0.120719342 0.0590437267 0.120719342 0.0590437267 32.2649712 32.8901579 32.2649712"></polygon>
        <polygon id="path-3" points="4.8928098e-21 0.0501020576 4.8928098e-21 33.1357481 35.1165309 33.1357481 35.1165309 0.0501020576 0 0.0501020576"></polygon>
        <polygon id="path-5" points="19.3322732 0.140691358 0.118308103 0.140691358 0.118308103 15.2281103 19.3322732 15.2281103 19.3322732 0.140691358"></polygon>
    </defs>
    <g id="Symbols" stroke="none" stroke-width="1" fill="none" fill-rule="evenodd">
        <g id="logo-loginpage">
            <g id="Group">
                <circle id="Oval-83-Copy-2" fill="#FFFFFF" cx="40" cy="40" r="40"></circle>
                <g id="Page-1-Copy" transform="translate(10.666667, 21.333333)">
                    <path d="M41.0734901,7.49443128 C41.0734901,9.8112214 38.7970429,11.689279 35.9889854,11.689279 C33.180928,11.689279 30.9046613,9.8112214 30.9046613,7.49443128 C30.9046613,5.17764115 33.180928,3.29958354 35.9889854,3.29958354 C38.7970429,3.29958354 41.0734901,5.17764115 41.0734901,7.49443128" id="Fill-1" fill="#BC4B52"></path>
                    <g id="Group-5" transform="translate(26.666667, 2.666667)">
                        <mask id="mask-2" fill="white">
                            <use xlink:href="#path-1"></use>
                        </mask>
                        <g id="Clip-4"></g>
                        <path d="M31.0851019,0.120719342 C12.3718794,9.35528724 9.3195881,18.6018058 12.4321707,21.8491144 C16.9191778,26.5304971 32.0309891,12.7460033 32.8902302,11.769493 C17.8475553,31.5665959 5.09685169,35.1012626 0.609664,30.4196988 C-3.41685497,26.2186947 15.4405973,2.5349251 31.0851019,0.120719342" id="Fill-3" fill="#D45C66" mask="url(#mask-2)"></path>
                    </g>
                    <g id="Group-8" transform="translate(0.000000, 5.834617)">
                        <mask id="mask-4" fill="white">
                            <use xlink:href="#path-3"></use>
                        </mask>
                        <g id="Clip-7"></g>
                        <path d="M14.5008837,0.0501020576 C22.0667175,3.02001152 27.8960181,6.86557531 27.8960181,13.64067 C27.8960181,23.4074025 17.1876365,31.3250486 3.97806933,31.3250486 C2.62259856,31.3250486 1.29402421,31.2404889 -7.22051282e-05,31.080242 C3.3412201,32.3917317 7.15202626,33.1357481 11.1985822,33.1357481 C24.4081493,33.1357481 35.1165309,25.2181021 35.1165309,15.4513695 C35.1165309,6.68667819 27.6016016,0.0501020576 14.5008837,0.0501020576" id="Fill-6" fill="#BC4B52" mask="url(#mask-4)"></path>
                    </g>
                    <path d="M25.4005727,12.4011918 C25.5908332,13.3525333 25.6919204,14.3361053 25.6919204,15.3435786 C25.6919204,23.5618008 20.1438589,30.6412741 11.950743,30.6412741 C10.2093358,30.6412741 7.96736656,29.0212412 6.41495631,28.4684346 L2.79043938,33.604484 C4.74106092,34.3794634 6.868224,34.7367144 9.09268349,34.8058831 C18.8102302,35.1075457 26.2112558,27.1178337 26.2112558,17.6342947 C26.2112558,15.8092905 25.9264066,14.0512823 25.4005727,12.4011918" id="Fill-9" fill="#2B1E17"></path>
                    <g id="Group-13" transform="translate(38.088205, 0.040379)">
                        <mask id="mask-6" fill="white">
                            <use xlink:href="#path-5"></use>
                        </mask>
                        <g id="Clip-12"></g>
                        <path d="M19.3322732,0.140637037 C10.747264,3.25920494 3.49678605,8.87690041 0.118308103,15.2281103 C7.90599221,7.56034074 14.2757481,5.04020905 18.8703409,3.91848066 L19.3322732,0.140637037 Z" id="Fill-11" fill="#2B1E17" mask="url(#mask-6)"></path>
                    </g>
                </g>
            </g>
        </g>
    </g>
</svg>