<?xml version="1.0" encoding="UTF-8" standalone="no"?>
<svg
   xmlns:dc="http://purl.org/dc/elements/1.1/"
   xmlns:cc="http://creativecommons.org/ns#"
   xmlns:rdf="http://www.w3.org/1999/02/22-rdf-syntax-ns#"
   xmlns:svg="http://www.w3.org/2000/svg"
   xmlns="http://www.w3.org/2000/svg"
   xmlns:xlink="http://www.w3.org/1999/xlink"
   xmlns:sodipodi="http://sodipodi.sourceforge.net/DTD/sodipodi-0.dtd"
   xmlns:inkscape="http://www.inkscape.org/namespaces/inkscape"
   width="44px"
   height="44px"
   viewBox="0 0 44 44"
   version="1.1"
   id="svg2"
   inkscape:version="0.91 r13725"
   sodipodi:docname="play-video.svg">
  <metadata
     id="metadata29">
    <rdf:RDF>
      <cc:Work
         rdf:about="">
        <dc:format>image/svg+xml</dc:format>
        <dc:type
           rdf:resource="http://purl.org/dc/dcmitype/StillImage" />
      </cc:Work>
    </rdf:RDF>
  </metadata>
  <sodipodi:namedview
     pagecolor="#ffffff"
     bordercolor="#666666"
     borderopacity="1"
     objecttolerance="10"
     gridtolerance="10"
     guidetolerance="10"
     inkscape:pageopacity="0"
     inkscape:pageshadow="2"
     inkscape:window-width="1351"
     inkscape:window-height="855"
     id="namedview27"
     showgrid="false"
     inkscape:zoom="10"
     inkscape:cx="1.9414166"
     inkscape:cy="20.466794"
     inkscape:window-x="0"
     inkscape:window-y="0"
     inkscape:window-maximized="0"
     inkscape:current-layer="svg2"
     inkscape:snap-bbox="true"
     inkscape:snap-bbox-midpoints="true" />
  <!-- Generator: Sketch 41.2 (35397) - http://www.bohemiancoding.com/sketch -->
  <title
     id="title4">play-video</title>
  <desc
     id="desc6">Created with Sketch.</desc>
  <defs
     id="defs8">
    <path
       d="M0,22 C0,9.8497355 9.84706399,0 22,0 L22,0 C34.1502645,0 44,9.84706399 44,22 L44,22 C44,34.1502645 34.152936,44 22,44 L22,44 C9.8497355,44 0,34.152936 0,22 L0,22 Z"
       id="path-1" />
    <filter
       x="-50%"
       y="-50%"
       width="200%"
       height="200%"
       filterUnits="objectBoundingBox"
       id="filter-2">
      <feOffset
         dx="0"
         dy="1"
         in="SourceAlpha"
         result="shadowOffsetOuter1"
         id="feOffset12" />
      <feGaussianBlur
         stdDeviation="1"
         in="shadowOffsetOuter1"
         result="shadowBlurOuter1"
         id="feGaussianBlur14" />
      <feColorMatrix
         values="0 0 0 0 0   0 0 0 0 0   0 0 0 0 0  0 0 0 0.24 0"
         type="matrix"
         in="shadowBlurOuter1"
         id="feColorMatrix16" />
    </filter>
    <clipPath
       clipPathUnits="userSpaceOnUse"
       id="clipPath18">
      <path
         d="M 21,21 3,21 C 1.89,21 1,20.11 1,19 L 1,7 C 1,5.9 1.89,5 3,5 l 5,0 0,-2 8,0 0,2 5,0 c 1.1,0 1.99,0.9 1.99,2 L 23,19 c 0,1.11 -0.9,2 -2,2 z M 21,7 3,7 3,19 21,19 21,7 Z m -5,6 -7,-4 0,8 7,-4 z"
         id="path20"
         inkscape:connector-curvature="0" />
    </clipPath>
    <clipPath
       clipPathUnits="userSpaceOnUse"
       id="clipPath24">
      <path
         d="m -4,-2 32,0 0,28 -32,0 0,-28 z"
         id="path26"
         inkscape:connector-curvature="0" />
    </clipPath>
    <clipPath
       clipPathUnits="userSpaceOnUse"
       id="clipPath28">
      <path
         d="M 1,3 23,3 23,21 1,21 1,3 Z"
         id="path30"
         inkscape:connector-curvature="0" />
    </clipPath>
    <clipPath
       clipPathUnits="userSpaceOnUse"
       id="clipPath32">
      <path
         d="M 0,24 24,24 24,0 0,0 0,24 Z"
         id="path34"
         inkscape:connector-curvature="0"
         style="clip-rule:evenodd" />
    </clipPath>
    <clipPath
       clipPathUnits="userSpaceOnUse"
       id="clipPath36">
      <path
         d="M 1,3 23,3 23,21 1,21 1,3 Z"
         id="path38"
         inkscape:connector-curvature="0" />
    </clipPath>
  </defs>
  <use
     xlink:href="#path-1"
     id="use22"
     style="fill:#ffffff;fill-opacity:1;fill-rule:evenodd;stroke:none;stroke-width:1;filter:url(#filter-2)"
     x="0"
     y="0"
     width="100%"
     height="100%"
     transform="matrix(-1,0,0,1,44,0)" />
  <use
     xlink:href="#path-1"
     id="use24"
     style="fill:#7a0126;fill-rule:evenodd;stroke:none;stroke-width:1;fill-opacity:1"
     x="0"
     y="0"
     width="100%"
     height="100%"
     transform="matrix(-1,0,0,1,44,0)" />
  <g
     transform="matrix(1.125,0,0,-1.125,8.5,35.5)"
     id="g14"
     style="fill:#ffffff">
    <g
       id="g16"
       clip-path="url(#clipPath18)"
       style="fill:#ffffff">
      <g
         id="g22"
         style="fill:#ffffff" />
      <g
         id="g40"
         style="fill:#ffffff">
        <g
           clip-path="url(#clipPath24)"
           id="g42"
           style="fill:#ffffff">
          <g
             id="g44"
             style="fill:#ffffff" />
          <g
             id="g46"
             style="fill:#ffffff">
            <g
               clip-path="url(#clipPath28)"
               id="g48"
               style="fill:#ffffff">
              <path
                 d="m -4,-2 32,0 0,28 -32,0 0,-28 z"
                 style="fill:#ffffff;fill-opacity:1;fill-rule:nonzero;stroke:none"
                 id="path50"
                 inkscape:connector-curvature="0" />
            </g>
          </g>
          <g
             id="g52"
             style="fill:#ffffff">
            <g
               clip-path="url(#clipPath32)"
               id="g54"
               style="fill:#ffffff">
              <g
                 clip-path="url(#clipPath36)"
                 id="g56"
                 style="fill:#ffffff">
                <path
                   d="m -5,-5 34,0 0,34 -34,0 0,-34 z"
                   style="fill:#ffffff;fill-opacity:1;fill-rule:nonzero;stroke:none"
                   id="path58"
                   inkscape:connector-curvature="0" />
              </g>
            </g>
          </g>
        </g>
      </g>
    </g>
  </g>
</svg>
