<?xml version="1.0" encoding="UTF-8" standalone="no"?>
<svg width="44px" height="44px" viewBox="0 0 44 44" version="1.1" xmlns="http://www.w3.org/2000/svg" xmlns:xlink="http://www.w3.org/1999/xlink">
    <!-- Generator: Sketch 41.2 (35397) - http://www.bohemiancoding.com/sketch -->
    <title>reset</title>
    <desc>Created with Sketch.</desc>
    <defs>
        <rect id="path-1" x="0" y="0" width="44" height="44" rx="22"></rect>
        <filter x="-50%" y="-50%" width="200%" height="200%" filterUnits="objectBoundingBox" id="filter-2">
            <feOffset dx="0" dy="1" in="SourceAlpha" result="shadowOffsetOuter1"></feOffset>
            <feGaussianBlur stdDeviation="1" in="shadowOffsetOuter1" result="shadowBlurOuter1"></feGaussianBlur>
            <feColorMatrix values="0 0 0 0 0   0 0 0 0 0   0 0 0 0 0  0 0 0 0.24 0" type="matrix" in="shadowBlurOuter1"></feColorMatrix>
        </filter>
    </defs>
    <g id="Symbols" stroke="none" stroke-width="1" fill="none" fill-rule="evenodd">
        <g id="reset">
            <g id="Rectangle-6">
                <use fill="black" fill-opacity="1" filter="url(#filter-2)" xlink:href="#path-1"></use>
                <use fill="#FFFFFF" fill-rule="evenodd" xlink:href="#path-1"></use>
            </g>
            <path d="M27.64,16.35 C26.19,14.9 24.2,14 21.99,14 C17.57,14 14,17.58 14,22 C14,26.42 17.57,30 21.99,30 C25.72,30 28.83,27.45 29.72,24 L27.64,24 C26.82,26.33 24.6,28 21.99,28 C18.68,28 15.99,25.31 15.99,22 C15.99,18.69 18.68,16 21.99,16 C23.65,16 25.13,16.69 26.21,17.78 L22.99,21 L29.99,21 L29.99,14 L27.64,16.35 Z" id="Reset" fill="#123566" transform="translate(21.995000, 22.000000) scale(-1, 1) translate(-21.995000, -22.000000) "></path>
        </g>
    </g>
</svg>