<?xml version="1.0" encoding="UTF-8" standalone="no"?>
<svg
   xmlns:dc="http://purl.org/dc/elements/1.1/"
   xmlns:cc="http://creativecommons.org/ns#"
   xmlns:rdf="http://www.w3.org/1999/02/22-rdf-syntax-ns#"
   xmlns:svg="http://www.w3.org/2000/svg"
   xmlns="http://www.w3.org/2000/svg"
   viewBox="0 0 30 30"
   height="30"
   width="30"
   xml:space="preserve"
   version="1.1"
   id="svg4882"><metadata
     id="metadata4888"><rdf:RDF><cc:Work
         rdf:about=""><dc:format>image/svg+xml</dc:format><dc:type
           rdf:resource="http://purl.org/dc/dcmitype/StillImage" /><dc:title></dc:title></cc:Work></rdf:RDF></metadata><defs
     id="defs4886"><clipPath
       id="clipPath4898"
       clipPathUnits="userSpaceOnUse"><path
         id="path4900"
         d="M 1,23 22,23 22,1 1,1 1,23 Z" /></clipPath><clipPath
       id="clipPath4904"
       clipPathUnits="userSpaceOnUse"><path
         id="path4906"
         d="M 18.535,16.902 C 12.023,14.586 7.754,9.488 5.688,1.531 L 4.234,1.906 c 1.989,7.649 5.973,12.887 11.934,15.649 l -3.469,0.25 0.106,1.496 6.992,-0.504 0.496,0.742 1.246,-0.832 -0.359,-0.543 -0.071,-0.965 -0.55,0.039 -3.852,-5.777 -1.246,0.832 3.074,4.609 z M 5.5,19.914 l 3,3 1.414,-1.414 -3,-3 3,-3 -1.414,-1.414 -3,3 -3,-3 -1.414,1.414 3,3 -3,3 1.414,1.414 3,-3 z M 16.5,1 C 14.016,1 12,3.016 12,5.5 12,7.984 14.016,10 16.5,10 18.984,10 21,7.984 21,5.5 21,3.016 18.984,1 16.5,1 Z m 0,2 C 17.879,3 19,4.121 19,5.5 19,6.879 17.879,8 16.5,8 15.121,8 14,6.879 14,5.5 14,4.121 15.121,3 16.5,3 Z" /></clipPath><clipPath
       id="clipPath4914"
       clipPathUnits="userSpaceOnUse"><path
         id="path4916"
         d="M 0,0 24,0 24,24 0,24 0,0 Z" /></clipPath><clipPath
       id="clipPath4926"
       clipPathUnits="userSpaceOnUse"><path
         id="path4928"
         d="M 0,0 24,0 24,24 0,24 0,0 Z" /></clipPath><clipPath
       id="clipPath4936"
       clipPathUnits="userSpaceOnUse"><path
         id="path4938"
         d="M 1,23 22,23 22,1 1,1 1,23 Z" /></clipPath><clipPath
       id="clipPath4946"
       clipPathUnits="userSpaceOnUse"><path
         id="path4948"
         d="M 0,0 24,0 24,24 0,24 0,0 Z" /></clipPath><clipPath
       id="clipPath4962"
       clipPathUnits="userSpaceOnUse"><path
         id="path4964"
         d="M 1,1 22,1 22,23 1,23 1,1 Z" /></clipPath><clipPath
       id="clipPath4972"
       clipPathUnits="userSpaceOnUse"><path
         id="path4974"
         d="M 1,23 22,23 22,1 1,1 1,23 Z" /></clipPath><clipPath
       id="clipPath4982"
       clipPathUnits="userSpaceOnUse"><path
         id="path4984"
         d="M 0,0 24,0 24,24 0,24 0,0 Z" /></clipPath></defs><g
     transform="matrix(1.25,0,0,-1.25,0,30)"
     id="g4890"><g
       id="g4892" /><g
       id="g4894"><g
         clip-path="url(#clipPath4898)"
         id="g4896"><g
           clip-path="url(#clipPath4904)"
           id="g4902"><g
             id="g4908"><g
               id="g4910"><g
                 clip-path="url(#clipPath4914)"
                 id="g4912"><g
                   id="g4918"><g
                     id="g4920"><g
                       id="g4922"><g
                         clip-path="url(#clipPath4926)"
                         id="g4924"><g
                           id="g4930" /><g
                           id="g4932"><g
                             clip-path="url(#clipPath4936)"
                             id="g4934"><g
                               id="g4940"><g
                                 id="g4942"><g
                                   clip-path="url(#clipPath4946)"
                                   id="g4944"><g
                                   id="g4950"><path
                                   id="path4952"
                                   style="fill:#7a0126;fill-opacity:1;fill-rule:nonzero;stroke:none"
                                   d="M 0,0 24,0 24,24 0,24 0,0 Z" /></g></g></g></g></g></g><g
                           id="g4954"><g
                             id="g4956"><g
                               id="g4958"><g
                                 clip-path="url(#clipPath4962)"
                                 id="g4960"><g
                                   id="g4966" /><g
                                   id="g4968"><g
                                   clip-path="url(#clipPath4972)"
                                   id="g4970"><g
                                   id="g4976"><g
                                   id="g4978"><g
                                   clip-path="url(#clipPath4982)"
                                   id="g4980"><g
                                   id="g4986"><path
                                   id="path4988"
                                   style="fill:#7a0126;fill-opacity:1;fill-rule:nonzero;stroke:none"
                                   d="M 0,0 24,0 24,24 0,24 0,0 Z" /></g></g></g></g></g></g></g></g></g></g></g></g></g></g></g></g></g></g></g></g></g></svg>