<?xml version="1.0" encoding="UTF-8" standalone="no"?>
<svg
   xmlns:dc="http://purl.org/dc/elements/1.1/"
   xmlns:cc="http://creativecommons.org/ns#"
   xmlns:rdf="http://www.w3.org/1999/02/22-rdf-syntax-ns#"
   xmlns:svg="http://www.w3.org/2000/svg"
   xmlns="http://www.w3.org/2000/svg"
   xmlns:sodipodi="http://sodipodi.sourceforge.net/DTD/sodipodi-0.dtd"
   xmlns:inkscape="http://www.inkscape.org/namespaces/inkscape"
   viewBox="0 0 30 30"
   height="30"
   width="30"
   xml:space="preserve"
   version="1.1"
   id="svg7424"
   inkscape:version="0.91 r13725"
   sodipodi:docname="player_settings.svg"><sodipodi:namedview
     pagecolor="#ffffff"
     bordercolor="#666666"
     borderopacity="1"
     objecttolerance="10"
     gridtolerance="10"
     guidetolerance="10"
     inkscape:pageopacity="0"
     inkscape:pageshadow="2"
     inkscape:window-width="1108"
     inkscape:window-height="664"
     id="namedview55"
     showgrid="false"
     inkscape:zoom="7.8666667"
     inkscape:cx="15"
     inkscape:cy="15"
     inkscape:window-x="0"
     inkscape:window-y="0"
     inkscape:window-maximized="0"
     inkscape:current-layer="g7432" /><metadata
     id="metadata7430"><rdf:RDF><cc:Work
         rdf:about=""><dc:format>image/svg+xml</dc:format><dc:type
           rdf:resource="http://purl.org/dc/dcmitype/StillImage" /><dc:title /></cc:Work></rdf:RDF></metadata><defs
     id="defs7428"><clipPath
       id="clipPath7440"
       clipPathUnits="userSpaceOnUse"><path
         id="path7442"
         d="M 3,23 21,23 21,1 3,1 3,23 Z" /></clipPath><clipPath
       id="clipPath7446"
       clipPathUnits="userSpaceOnUse"><path
         id="path7448"
         d="m 14.488,18.52 c 1.102,0 2,0.902 2,2 0,1.101 -0.898,2 -2,2 -1.097,0 -2,-0.899 -2,-2 0,-1.098 0.903,-2 2,-2 z M 6.891,6.621 l 4.597,1.899 -1.5,-7.5 2,0 2,7.5 -0.097,2 0.8,3.5 c 3.461,-0.348 4.098,0 6.297,0 l -1,2 c -1.64,-0.899 -2.562,-0.899 -4.297,0.402 l -1,0.598 c -0.402,0.601 -1,1 -1.703,1 -0.297,0 -0.5,-0.098 -0.797,-0.098 -0.89,0.023 -1.621,-0.086 -2.203,-0.328 -0.574,-0.246 -1.574,-0.871 -3,-1.875 L 3.383,12 l 1.605,-0.98 4,3.402 1.801,0.699 -1.598,-3.101 -4.902,-4 0.602,-2 2,0.601 z M 18,4 c 1.105,0 2,0.895 2,2 0,1.105 -0.895,2 -2,2 -1.105,0 -2,-0.895 -2,-2 0,-1.105 0.895,-2 2,-2 z" /></clipPath><clipPath
       id="clipPath7456"
       clipPathUnits="userSpaceOnUse"><path
         id="path7458"
         d="M 0,0 24,0 24,24 0,24 0,0 Z" /></clipPath><clipPath
       id="clipPath7468"
       clipPathUnits="userSpaceOnUse"><path
         id="path7470"
         d="M 0,0 24,0 24,24 0,24 0,0 Z" /></clipPath><clipPath
       id="clipPath7478"
       clipPathUnits="userSpaceOnUse"><path
         id="path7480"
         d="M 3,23 21,23 21,1 3,1 3,23 Z" /></clipPath><clipPath
       id="clipPath7488"
       clipPathUnits="userSpaceOnUse"><path
         id="path7490"
         d="M 0,0 24,0 24,24 0,24 0,0 Z" /></clipPath><clipPath
       id="clipPath7504"
       clipPathUnits="userSpaceOnUse"><path
         id="path7506"
         d="M 3,1 21,1 21,23 3,23 3,1 Z" /></clipPath><clipPath
       id="clipPath7514"
       clipPathUnits="userSpaceOnUse"><path
         id="path7516"
         d="M 3,23 21,23 21,1 3,1 3,23 Z" /></clipPath><clipPath
       id="clipPath7524"
       clipPathUnits="userSpaceOnUse"><path
         id="path7526"
         d="M 0,0 24,0 24,24 0,24 0,0 Z" /></clipPath></defs><g
     transform="matrix(1.25,0,0,-1.25,0,30)"
     id="g7432"><g
       id="g7434" /><g
       clip-path="url(#clipPath7446)"
       id="g7444"
       style="fill:#ff7c00;fill-opacity:1"><g
         id="g7450"
         style="fill:#ff7c00;fill-opacity:1"><g
           id="g7452"
           style="fill:#ff7c00;fill-opacity:1"><g
             clip-path="url(#clipPath7456)"
             id="g7454"
             style="fill:#ff7c00;fill-opacity:1"><g
               id="g7460"
               style="fill:#ff7c00;fill-opacity:1"><g
                 id="g7462"
                 style="fill:#ff7c00;fill-opacity:1"><g
                   id="g7464"
                   style="fill:#ff7c00;fill-opacity:1"><g
                     clip-path="url(#clipPath7468)"
                     id="g7466"
                     style="fill:#ff7c00;fill-opacity:1"><g
                       id="g7472"
                       style="fill:#ff7c00;fill-opacity:1" /><g
                       id="g7474"
                       style="fill:#ff7c00;fill-opacity:1"><g
                         clip-path="url(#clipPath7478)"
                         id="g7476"
                         style="fill:#ff7c00;fill-opacity:1"><g
                           id="g7482"
                           style="fill:#ff7c00;fill-opacity:1"><g
                             id="g7484"
                             style="fill:#ff7c00;fill-opacity:1"><g
                               clip-path="url(#clipPath7488)"
                               id="g7486"
                               style="fill:#ff7c00;fill-opacity:1"><g
                                 id="g7492"
                                 style="fill:#ff7c00;fill-opacity:1"><path
                                   id="path7494"
                                   style="fill:#ff7c00;fill-opacity:1;fill-rule:nonzero;stroke:none"
                                   d="M 0,0 24,0 24,24 0,24 0,0 Z"
                                   inkscape:connector-curvature="0" /></g></g></g></g></g></g><g
                       id="g7496"
                       style="fill:#ff7c00;fill-opacity:1"><g
                         id="g7498"
                         style="fill:#ff7c00;fill-opacity:1"><g
                           id="g7500"
                           style="fill:#ff7c00;fill-opacity:1"><g
                             clip-path="url(#clipPath7504)"
                             id="g7502"
                             style="fill:#ff7c00;fill-opacity:1"><g
                               id="g7508"
                               style="fill:#ff7c00;fill-opacity:1" /><g
                               id="g7510"
                               style="fill:#ff7c00;fill-opacity:1"><g
                                 clip-path="url(#clipPath7514)"
                                 id="g7512"
                                 style="fill:#ff7c00;fill-opacity:1"><g
                                   id="g7518"
                                   style="fill:#ff7c00;fill-opacity:1"><g
                                   id="g7520"
                                   style="fill:#ff7c00;fill-opacity:1"><g
                                   clip-path="url(#clipPath7524)"
                                   id="g7522"
                                   style="fill:#ff7c00;fill-opacity:1"><g
                                   id="g7528"
                                   style="fill:#ff7c00;fill-opacity:1"><path
                                   id="path7530"
                                   style="fill:#ff7c00;fill-opacity:1;fill-rule:nonzero;stroke:none"
                                   d="M 0,0 24,0 24,24 0,24 0,0 Z"
                                   inkscape:connector-curvature="0" /></g></g></g></g></g></g></g></g></g></g></g></g></g></g></g></g></g></g></g></svg>