<?xml version="1.0" encoding="UTF-8" standalone="no"?>
<svg
   xmlns:dc="http://purl.org/dc/elements/1.1/"
   xmlns:cc="http://creativecommons.org/ns#"
   xmlns:rdf="http://www.w3.org/1999/02/22-rdf-syntax-ns#"
   xmlns:svg="http://www.w3.org/2000/svg"
   xmlns="http://www.w3.org/2000/svg"
   viewBox="0 0 30 30"
   height="30"
   width="30"
   xml:space="preserve"
   version="1.1"
   id="svg7424"><metadata
     id="metadata7430"><rdf:RDF><cc:Work
         rdf:about=""><dc:format>image/svg+xml</dc:format><dc:type
           rdf:resource="http://purl.org/dc/dcmitype/StillImage" /><dc:title></dc:title></cc:Work></rdf:RDF></metadata><defs
     id="defs7428"><clipPath
       id="clipPath7440"
       clipPathUnits="userSpaceOnUse"><path
         id="path7442"
         d="M 3,23 21,23 21,1 3,1 3,23 Z" /></clipPath><clipPath
       id="clipPath7446"
       clipPathUnits="userSpaceOnUse"><path
         id="path7448"
         d="m 14.488,18.52 c 1.102,0 2,0.902 2,2 0,1.101 -0.898,2 -2,2 -1.097,0 -2,-0.899 -2,-2 0,-1.098 0.903,-2 2,-2 z M 6.891,6.621 l 4.597,1.899 -1.5,-7.5 2,0 2,7.5 -0.097,2 0.8,3.5 c 3.461,-0.348 4.098,0 6.297,0 l -1,2 c -1.64,-0.899 -2.562,-0.899 -4.297,0.402 l -1,0.598 c -0.402,0.601 -1,1 -1.703,1 -0.297,0 -0.5,-0.098 -0.797,-0.098 -0.89,0.023 -1.621,-0.086 -2.203,-0.328 -0.574,-0.246 -1.574,-0.871 -3,-1.875 L 3.383,12 l 1.605,-0.98 4,3.402 1.801,0.699 -1.598,-3.101 -4.902,-4 0.602,-2 2,0.601 z M 18,4 c 1.105,0 2,0.895 2,2 0,1.105 -0.895,2 -2,2 -1.105,0 -2,-0.895 -2,-2 0,-1.105 0.895,-2 2,-2 z" /></clipPath><clipPath
       id="clipPath7456"
       clipPathUnits="userSpaceOnUse"><path
         id="path7458"
         d="M 0,0 24,0 24,24 0,24 0,0 Z" /></clipPath><clipPath
       id="clipPath7468"
       clipPathUnits="userSpaceOnUse"><path
         id="path7470"
         d="M 0,0 24,0 24,24 0,24 0,0 Z" /></clipPath><clipPath
       id="clipPath7478"
       clipPathUnits="userSpaceOnUse"><path
         id="path7480"
         d="M 3,23 21,23 21,1 3,1 3,23 Z" /></clipPath><clipPath
       id="clipPath7488"
       clipPathUnits="userSpaceOnUse"><path
         id="path7490"
         d="M 0,0 24,0 24,24 0,24 0,0 Z" /></clipPath><clipPath
       id="clipPath7504"
       clipPathUnits="userSpaceOnUse"><path
         id="path7506"
         d="M 3,1 21,1 21,23 3,23 3,1 Z" /></clipPath><clipPath
       id="clipPath7514"
       clipPathUnits="userSpaceOnUse"><path
         id="path7516"
         d="M 3,23 21,23 21,1 3,1 3,23 Z" /></clipPath><clipPath
       id="clipPath7524"
       clipPathUnits="userSpaceOnUse"><path
         id="path7526"
         d="M 0,0 24,0 24,24 0,24 0,0 Z" /></clipPath></defs><g
     transform="matrix(1.25,0,0,-1.25,0,30)"
     id="g7432"><g
       id="g7434" /><g
       id="g7436"><g
         clip-path="url(#clipPath7440)"
         id="g7438"><g
           clip-path="url(#clipPath7446)"
           id="g7444"><g
             id="g7450"><g
               id="g7452"><g
                 clip-path="url(#clipPath7456)"
                 id="g7454"><g
                   id="g7460"><g
                     id="g7462"><g
                       id="g7464"><g
                         clip-path="url(#clipPath7468)"
                         id="g7466"><g
                           id="g7472" /><g
                           id="g7474"><g
                             clip-path="url(#clipPath7478)"
                             id="g7476"><g
                               id="g7482"><g
                                 id="g7484"><g
                                   clip-path="url(#clipPath7488)"
                                   id="g7486"><g
                                   id="g7492"><path
                                   id="path7494"
                                   style="fill:#7a0126;fill-opacity:1;fill-rule:nonzero;stroke:none"
                                   d="M 0,0 24,0 24,24 0,24 0,0 Z" /></g></g></g></g></g></g><g
                           id="g7496"><g
                             id="g7498"><g
                               id="g7500"><g
                                 clip-path="url(#clipPath7504)"
                                 id="g7502"><g
                                   id="g7508" /><g
                                   id="g7510"><g
                                   clip-path="url(#clipPath7514)"
                                   id="g7512"><g
                                   id="g7518"><g
                                   id="g7520"><g
                                   clip-path="url(#clipPath7524)"
                                   id="g7522"><g
                                   id="g7528"><path
                                   id="path7530"
                                   style="fill:#7a0126;fill-opacity:1;fill-rule:nonzero;stroke:none"
                                   d="M 0,0 24,0 24,24 0,24 0,0 Z" /></g></g></g></g></g></g></g></g></g></g></g></g></g></g></g></g></g></g></g></g></g></svg>