<?xml version="1.0" encoding="UTF-8" standalone="no"?>
<svg
   xmlns:dc="http://purl.org/dc/elements/1.1/"
   xmlns:cc="http://creativecommons.org/ns#"
   xmlns:rdf="http://www.w3.org/1999/02/22-rdf-syntax-ns#"
   xmlns:svg="http://www.w3.org/2000/svg"
   xmlns="http://www.w3.org/2000/svg"
   viewBox="0 0 30 30"
   height="30"
   width="30"
   xml:space="preserve"
   version="1.1"
   id="svg8072"><metadata
     id="metadata8078"><rdf:RDF><cc:Work
         rdf:about=""><dc:format>image/svg+xml</dc:format><dc:type
           rdf:resource="http://purl.org/dc/dcmitype/StillImage" /><dc:title></dc:title></cc:Work></rdf:RDF></metadata><defs
     id="defs8076"><clipPath
       id="clipPath8088"
       clipPathUnits="userSpaceOnUse"><path
         id="path8090"
         d="m 19.43,11.02 c 0.04,0.32 0.07,0.64 0.07,0.98 0,0.34 -0.03,0.66 -0.07,0.98 l 2.11,1.65 c 0.19,0.15 0.24,0.42 0.12,0.64 l -2,3.46 c -0.12,0.22 -0.39,0.3 -0.61,0.22 l -2.49,-1 c -0.52,0.4 -1.08,0.73 -1.69,0.98 l -0.38,2.65 C 14.46,21.82 14.25,22 14,22 l -4,0 C 9.75,22 9.54,21.82 9.51,21.58 L 9.13,18.93 C 8.52,18.68 7.96,18.34 7.44,17.95 l -2.49,1 c -0.23,0.09 -0.49,0 -0.61,-0.22 l -2,-3.46 C 2.21,15.05 2.27,14.78 2.46,14.63 L 4.57,12.98 C 4.53,12.66 4.5,12.33 4.5,12 4.5,11.67 4.53,11.34 4.57,11.02 L 2.46,9.37 C 2.27,9.22 2.22,8.95 2.34,8.73 l 2,-3.46 C 4.46,5.05 4.73,4.97 4.95,5.05 l 2.49,1 C 7.96,5.65 8.52,5.32 9.13,5.07 L 9.51,2.42 C 9.54,2.18 9.75,2 10,2 l 4,0 c 0.25,0 0.46,0.18 0.49,0.42 l 0.38,2.65 c 0.61,0.25 1.17,0.59 1.69,0.98 l 2.49,-1 c 0.23,-0.09 0.49,0 0.61,0.22 l 2,3.46 c 0.12,0.22 0.07,0.49 -0.12,0.64 l -2.11,1.65 z M 12,8.5 c -1.93,0 -3.5,1.57 -3.5,3.5 0,1.93 1.57,3.5 3.5,3.5 1.93,0 3.5,-1.57 3.5,-3.5 0,-1.93 -1.57,-3.5 -3.5,-3.5 z" /></clipPath><clipPath
       id="clipPath8094"
       clipPathUnits="userSpaceOnUse"><path
         id="path8096"
         d="m -3,-3 30,0 0,30 -30,0 0,-30 z" /></clipPath><clipPath
       id="clipPath8098"
       clipPathUnits="userSpaceOnUse"><path
         id="path8100"
         d="M 2,2 22,2 22,22 2,22 2,2 Z" /></clipPath><clipPath
       id="clipPath8102"
       clipPathUnits="userSpaceOnUse"><path
         style="clip-rule:evenodd"
         id="path8104"
         d="M 0,24 24,24 24,0 0,0 0,24 Z" /></clipPath><clipPath
       id="clipPath8106"
       clipPathUnits="userSpaceOnUse"><path
         id="path8108"
         d="M 2,2 22,2 22,22 2,22 2,2 Z" /></clipPath></defs><g
     transform="matrix(1.25,0,0,-1.25,0,30)"
     id="g8080"><g
       id="g8082" /><g
       id="g8084"><g
         clip-path="url(#clipPath8088)"
         id="g8086"><g
           id="g8092" /><g
           id="g8110"><g
             id="g8112"
             clip-path="url(#clipPath8094)"><g
               id="g8114" /><g
               id="g8116"><g
                 id="g8118"
                 clip-path="url(#clipPath8098)"><path
                   id="path8120"
                   style="fill:#000000;fill-opacity:1;fill-rule:nonzero;stroke:none"
                   d="m -2.729332,-3 29.45425,0 0,30 -29.45425,0 0,-30 z" /></g></g><g
               id="g8122"><g
                 id="g8124"
                 clip-path="url(#clipPath8102)"><g
                   id="g8126"
                   clip-path="url(#clipPath8106)"><path
                     id="path8128"
                     style="fill:#7a0126;fill-opacity:1;fill-rule:nonzero;stroke:none"
                     d="m -5,-5 34,0 0,34 -34,0 0,-34 z" /></g></g></g></g></g></g></g></g></svg>