<?xml version="1.0" encoding="UTF-8" standalone="no"?>
<svg width="68px" height="68px" viewBox="0 0 68 68" version="1.1" xmlns="http://www.w3.org/2000/svg" xmlns:xlink="http://www.w3.org/1999/xlink">
    <!-- Generator: Sketch 41.2 (35397) - http://www.bohemiancoding.com/sketch -->
    <title>ball-desktop</title>
    <desc>Created with Sketch.</desc>
    <defs>
        <ellipse id="path-1" cx="33.6423102" cy="33.6423102" rx="33.6020089" ry="33.6020089"></ellipse>
    </defs>
    <g id="Symbols" stroke="none" stroke-width="1" fill="none" fill-rule="evenodd">
        <g id="ball-desktop">
            <g id="Group-14">
                <mask id="mask-2" fill="white">
                    <use xlink:href="#path-1"></use>
                </mask>
                <use id="Oval-3-Copy-2" fill="#D8D8D8" xlink:href="#path-1"></use>
                <g id="Group-12" mask="url(#mask-2)">
                    <g transform="translate(-10.040301, 0.040301)">
                        <polygon id="Rectangle-5" fill="#FCFCFC" points="21.8413058 22.4013392 36.4021763 22.4013392 29.121741 33.6020089"></polygon>
                        <polygon id="Rectangle-5-Copy-2" fill="#FCFCFC" transform="translate(36.402176, 28.001674) scale(1, -1) translate(-36.402176, -28.001674) " points="29.121741 22.4013392 43.6826115 22.4013392 36.4021763 33.6020089"></polygon>
                        <polygon id="Rectangle-5-Copy-9" fill="#393939" points="7.28043526 22.4013392 21.8413058 22.4013392 14.5608705 33.6020089"></polygon>
                        <polygon id="Rectangle-5-Copy-8" fill="#3B3B3B" transform="translate(21.841306, 28.001674) scale(1, -1) translate(-21.841306, -28.001674) " points="14.5608705 22.4013392 29.121741 22.4013392 21.8413058 33.6020089"></polygon>
                        <polygon id="Rectangle-5-Copy-10" fill="#3B3B3B" transform="translate(7.280435, 28.001674) scale(1, -1) translate(-7.280435, -28.001674) " points="0 22.4013392 14.5608705 22.4013392 7.28043526 33.6020089"></polygon>
                        <polygon id="Rectangle-5-Copy-11" fill="#3B3B3B" transform="translate(80.084788, 28.001674) scale(1, -1) translate(-80.084788, -28.001674) " points="72.8043526 22.4013392 87.3652231 22.4013392 80.0847878 33.6020089"></polygon>
                        <polygon id="Rectangle-5-Copy-4" fill="#FCFCFC" points="36.4021763 22.4013392 50.9630468 22.4013392 43.6826115 33.6020089"></polygon>
                        <polygon id="Rectangle-5-Copy-3" fill="#EEEEEE" transform="translate(50.963047, 28.001674) scale(1, -1) translate(-50.963047, -28.001674) " points="43.6826115 22.4013392 58.243482 22.4013392 50.9630468 33.6020089"></polygon>
                        <polygon id="Rectangle-5-Copy-6" fill="#EEEEEE" points="50.9630468 22.4013392 65.5239173 22.4013392 58.243482 33.6020089"></polygon>
                        <polygon id="Rectangle-5-Copy-7" fill="#E1E1E1" points="65.5239173 22.4013392 80.0847878 22.4013392 72.8043526 33.6020089"></polygon>
                        <polygon id="Rectangle-5-Copy-5" fill="#EEEEEE" transform="translate(65.523917, 28.001674) scale(1, -1) translate(-65.523917, -28.001674) " points="58.243482 22.4013392 72.8043526 22.4013392 65.5239173 33.6020089"></polygon>
                        <polygon id="Rectangle-5-Copy-37" fill="#FCFCFC" transform="translate(29.121741, 16.801004) scale(1, -1) translate(-29.121741, -16.801004) " points="21.8413058 11.2006696 36.4021763 11.2006696 29.121741 22.4013392"></polygon>
                        <polygon id="Rectangle-5-Copy-36" fill="#FCFCFC" points="29.121741 11.2006696 43.6826115 11.2006696 36.4021763 22.4013392"></polygon>
                        <polygon id="Rectangle-5-Copy-35" fill="#E1E1E1" transform="translate(14.560871, 16.801004) scale(1, -1) translate(-14.560871, -16.801004) " points="7.28043526 11.2006696 21.8413058 11.2006696 14.5608705 22.4013392"></polygon>
                        <polygon id="Rectangle-5-Copy-34" fill="#EEEEEE" points="14.5608705 11.2006696 29.121741 11.2006696 21.8413058 22.4013392"></polygon>
                        <polygon id="Rectangle-5-Copy-29" fill="#FCFCFC" transform="translate(43.682612, 16.801004) scale(1, -1) translate(-43.682612, -16.801004) " points="36.4021763 11.2006696 50.9630468 11.2006696 43.6826115 22.4013392"></polygon>
                        <polygon id="Rectangle-5-Copy-28" fill="#393939" points="43.6826115 11.2006696 58.243482 11.2006696 50.9630468 22.4013392"></polygon>
                        <polygon id="Rectangle-5-Copy-20" fill="#292928" transform="translate(58.243482, 16.801004) scale(1, -1) translate(-58.243482, -16.801004) " points="50.9630468 11.2006696 65.5239173 11.2006696 58.243482 22.4013392"></polygon>
                        <polygon id="Rectangle-5-Copy-18" fill="#E1E1E1" transform="translate(72.804353, 16.801004) scale(1, -1) translate(-72.804353, -16.801004) " points="65.5239173 11.2006696 80.0847878 11.2006696 72.8043526 22.4013392"></polygon>
                        <polygon id="Rectangle-5-Copy-14" fill="#292928" points="58.243482 11.2006696 72.8043526 11.2006696 65.5239173 22.4013392"></polygon>
                        <polygon id="Rectangle-5-Copy-46" fill="#646464" points="21.8413058 0 36.4021763 0 29.121741 11.2006696"></polygon>
                        <polygon id="Rectangle-5-Copy-45" fill="#FCFCFC" transform="translate(36.402176, 5.600335) scale(1, -1) translate(-36.402176, -5.600335) " points="29.121741 2.06965668e-14 43.6826115 2.06965668e-14 36.4021763 11.2006696"></polygon>
                        <polygon id="Rectangle-5-Copy-43" fill="#646464" transform="translate(21.841306, 5.600335) scale(1, -1) translate(-21.841306, -5.600335) " points="14.5608705 2.06965668e-14 29.121741 2.06965668e-14 21.8413058 11.2006696"></polygon>
                        <polygon id="Rectangle-5-Copy-42" fill="#EEEEEE" points="36.4021763 0 50.9630468 0 43.6826115 11.2006696"></polygon>
                        <polygon id="Rectangle-5-Copy-41" fill="#4C4C4B" transform="translate(50.963047, 5.600335) scale(1, -1) translate(-50.963047, -5.600335) " points="43.6826115 2.06965668e-14 58.243482 2.06965668e-14 50.9630468 11.2006696"></polygon>
                        <polygon id="Rectangle-5-Copy-40" fill="#4C4C4B" points="50.9630468 0 65.5239173 0 58.243482 11.2006696"></polygon>
                        <polygon id="Rectangle-5-Copy-38" fill="#292928" transform="translate(65.523917, 5.600335) scale(1, -1) translate(-65.523917, -5.600335) " points="58.243482 2.06965668e-14 72.8043526 2.06965668e-14 65.5239173 11.2006696"></polygon>
                        <polygon id="Rectangle-5" fill="#EEEEEE" transform="translate(29.121741, 39.202344) scale(1, -1) translate(-29.121741, -39.202344) " points="21.8413058 33.6020089 36.4021763 33.6020089 29.121741 44.8026785"></polygon>
                        <polygon id="Rectangle-5-Copy-2" fill="#FCFCFC" points="29.121741 33.6020089 43.6826115 33.6020089 36.4021763 44.8026785"></polygon>
                        <polygon id="Rectangle-5-Copy-9" fill="#171717" transform="translate(14.560871, 39.202344) scale(1, -1) translate(-14.560871, -39.202344) " points="7.28043526 33.6020089 21.8413058 33.6020089 14.5608705 44.8026785"></polygon>
                        <polygon id="Rectangle-5-Copy-8" fill="#323232" points="14.5608705 33.6020089 29.121741 33.6020089 21.8413058 44.8026785"></polygon>
                        <polygon id="Rectangle-5-Copy-10" fill="#171717" points="0 33.6020089 14.5608705 33.6020089 7.28043526 44.8026785"></polygon>
                        <polygon id="Rectangle-5-Copy-12" fill="#3B3B3B" points="72.8043526 33.6020089 87.3652231 33.6020089 80.0847878 44.8026785"></polygon>
                        <polygon id="Rectangle-5-Copy-4" fill="#171717" transform="translate(43.682612, 39.202344) scale(1, -1) translate(-43.682612, -39.202344) " points="36.4021763 33.6020089 50.9630468 33.6020089 43.6826115 44.8026785"></polygon>
                        <polygon id="Rectangle-5-Copy-3" fill="#171717" points="43.6826115 33.6020089 58.243482 33.6020089 50.9630468 44.8026785"></polygon>
                        <polygon id="Rectangle-5-Copy-6" fill="#171717" transform="translate(58.243482, 39.202344) scale(1, -1) translate(-58.243482, -39.202344) " points="50.9630468 33.6020089 65.5239173 33.6020089 58.243482 44.8026785"></polygon>
                        <polygon id="Rectangle-5-Copy-7" fill="#C3C3C3" transform="translate(72.804353, 39.202344) scale(1, -1) translate(-72.804353, -39.202344) " points="65.5239173 33.6020089 80.0847878 33.6020089 72.8043526 44.8026785"></polygon>
                        <polygon id="Rectangle-5-Copy-5" fill="#E1E1E1" points="58.243482 33.6020089 72.8043526 33.6020089 65.5239173 44.8026785"></polygon>
                        <polygon id="Rectangle-5-Copy-33" fill="#EEEEEE" points="21.8413058 44.8026785 36.4021763 44.8026785 29.121741 56.0033481"></polygon>
                        <polygon id="Rectangle-5-Copy-32" fill="#EEEEEE" transform="translate(36.402176, 50.403013) scale(1, -1) translate(-36.402176, -50.403013) " points="29.121741 44.8026785 43.6826115 44.8026785 36.4021763 56.0033481"></polygon>
                        <polygon id="Rectangle-5-Copy-31" fill="#E1E1E1" points="7.28043526 44.8026785 21.8413058 44.8026785 14.5608705 56.0033481"></polygon>
                        <polygon id="Rectangle-5-Copy-30" fill="#E1E1E1" transform="translate(21.841306, 50.403013) scale(1, -1) translate(-21.841306, -50.403013) " points="14.5608705 44.8026785 29.121741 44.8026785 21.8413058 56.0033481"></polygon>
                        <polygon id="Rectangle-5-Copy-27" fill="#020202" points="36.4021763 44.8026785 50.9630468 44.8026785 43.6826115 56.0033481"></polygon>
                        <polygon id="Rectangle-5-Copy-26" fill="#020202" transform="translate(50.963047, 50.403013) scale(1, -1) translate(-50.963047, -50.403013) " points="43.6826115 44.8026785 58.243482 44.8026785 50.9630468 56.0033481"></polygon>
                        <polygon id="Rectangle-5-Copy-25" fill="#020202" points="50.9630468 44.8026785 65.5239173 44.8026785 58.243482 56.0033481"></polygon>
                        <polygon id="Rectangle-5-Copy-24" fill="#C3C3C3" points="65.5239173 44.8026785 80.0847878 44.8026785 72.8043526 56.0033481"></polygon>
                        <polygon id="Rectangle-5-Copy-23" fill="#C3C3C3" transform="translate(65.523917, 50.403013) scale(1, -1) translate(-65.523917, -50.403013) " points="58.243482 44.8026785 72.8043526 44.8026785 65.5239173 56.0033481"></polygon>
                        <polygon id="Rectangle-5-Copy-22" fill="#323232" transform="translate(29.121741, 61.603683) scale(1, -1) translate(-29.121741, -61.603683) " points="21.8413058 56.0033481 36.4021763 56.0033481 29.121741 67.2040177"></polygon>
                        <polygon id="Rectangle-5-Copy-21" fill="#EEEEEE" points="29.121741 56.0033481 43.6826115 56.0033481 36.4021763 67.2040177"></polygon>
                        <polygon id="Rectangle-5-Copy-19" fill="#323232" points="14.5608705 56.0033481 29.121741 56.0033481 21.8413058 67.2040177"></polygon>
                        <polygon id="Rectangle-5-Copy-17" fill="#E1E1E1" transform="translate(43.682612, 61.603683) scale(1, -1) translate(-43.682612, -61.603683) " points="36.4021763 56.0033481 50.9630468 56.0033481 43.6826115 67.2040177"></polygon>
                        <polygon id="Rectangle-5-Copy-16" fill="#C3C3C3" points="43.6826115 56.0033481 58.243482 56.0033481 50.9630468 67.2040177"></polygon>
                        <polygon id="Rectangle-5-Copy-15" fill="#C3C3C3" transform="translate(58.243482, 61.603683) scale(1, -1) translate(-58.243482, -61.603683) " points="50.9630468 56.0033481 65.5239173 56.0033481 58.243482 67.2040177"></polygon>
                        <polygon id="Rectangle-5-Copy-13" fill="#C3C3C3" points="58.243482 56.0033481 72.8043526 56.0033481 65.5239173 67.2040177"></polygon>
                    </g>
                </g>
            </g>
        </g>
    </g>
</svg>