<?xml version="1.0" encoding="UTF-8" standalone="no"?>
<svg width="18px" height="12px" viewBox="0 0 18 12" version="1.1" xmlns="http://www.w3.org/2000/svg" xmlns:xlink="http://www.w3.org/1999/xlink">
    <!-- Generator: Sketch 41.2 (35397) - http://www.bohemiancoding.com/sketch -->
    <title>calibrated_icon</title>
    <desc>Created with Sketch.</desc>
    <defs></defs>
    <g id="Symbols" stroke="none" stroke-width="1" fill="none" fill-rule="evenodd">
        <g id="calibrated_icon" fill="#FFFFFF">
            <path d="M13.6113281,11.0769231 C16.3457848,11.0769231 18,8.80390719 18,6 C18,3.19609281 16.3457848,0.923076923 13.6113281,0.923076923 C10.8768714,0.923076923 4.5,6 4.5,6 C4.5,6 10.8768714,11.0769231 13.6113281,11.0769231 Z M12.6210938,12 C15.9024418,12 18,9.3137085 18,6 C18,2.6862915 15.9024418,0 12.6210938,0 C9.33974569,0 0,2.6862915 0,6 C0,9.3137085 9.33974569,12 12.6210938,12 Z M2.26409005,7.7999897 C3.26596914,7.7999897 4.07815263,6.97491442 4.07815263,5.95713248 C4.07815263,4.93935053 3.26596914,4.11427525 2.26409005,4.11427525 C1.26221095,4.11427525 0.450027466,4.93935053 0.450027466,5.95713248 C0.450027466,6.97491442 1.26221095,7.7999897 2.26409005,7.7999897 Z M2.2331686,6.89999485 C2.74576073,6.89999485 3.16129875,6.47786099 3.16129875,5.95713248 C3.16129875,5.43640397 2.74576073,5.0142701 2.2331686,5.0142701 C1.72057647,5.0142701 1.30503845,5.43640397 1.30503845,5.95713248 C1.30503845,6.47786099 1.72057647,6.89999485 2.2331686,6.89999485 Z"></path>
        </g>
    </g>
</svg>