<?xml version="1.0" encoding="UTF-8" standalone="no"?>
<svg
   xmlns:dc="http://purl.org/dc/elements/1.1/"
   xmlns:cc="http://creativecommons.org/ns#"
   xmlns:rdf="http://www.w3.org/1999/02/22-rdf-syntax-ns#"
   xmlns:svg="http://www.w3.org/2000/svg"
   xmlns="http://www.w3.org/2000/svg"
   xmlns:sodipodi="http://sodipodi.sourceforge.net/DTD/sodipodi-0.dtd"
   xmlns:inkscape="http://www.inkscape.org/namespaces/inkscape"
   viewBox="0 0 30 30"
   height="30"
   width="30"
   xml:space="preserve"
   version="1.1"
   id="svg2"
   inkscape:version="0.91 r13725"
   sodipodi:docname="ball_settings.svg"><sodipodi:namedview
     pagecolor="#ffffff"
     bordercolor="#666666"
     borderopacity="1"
     objecttolerance="10"
     gridtolerance="10"
     guidetolerance="10"
     inkscape:pageopacity="0"
     inkscape:pageshadow="2"
     inkscape:window-width="1101"
     inkscape:window-height="628"
     id="namedview54"
     showgrid="false"
     inkscape:zoom="7.8666667"
     inkscape:cx="15"
     inkscape:cy="15"
     inkscape:window-x="0"
     inkscape:window-y="0"
     inkscape:window-maximized="0"
     inkscape:current-layer="svg2" /><metadata
     id="metadata8"><rdf:RDF><cc:Work
         rdf:about=""><dc:format>image/svg+xml</dc:format><dc:type
           rdf:resource="http://purl.org/dc/dcmitype/StillImage" /><dc:title /></cc:Work></rdf:RDF></metadata><defs
     id="defs6"><clipPath
       id="clipPath18"
       clipPathUnits="userSpaceOnUse"><path
         id="path20"
         d="M 1,23 23,23 23,1 1,1 1,23 Z" /></clipPath><clipPath
       id="clipPath24"
       clipPathUnits="userSpaceOnUse"><path
         id="path26"
         d="M 12,23 C 5.926,23 1,18.074 1,12 1,5.926 5.926,1 12,1 18.074,1 23,5.926 23,12 23,18.074 18.074,23 12,23 Z M 14.176,2.152 C 13.461,2.012 12.574,1.934 11.848,1.918 11.152,1.93 10.469,2.012 9.812,2.156 9.699,2.184 9.582,2.215 9.453,2.25 l -1.289,3.461 1.035,2.059 5.602,0 0.027,-0.059 1.024,-2.055 -1.25,-3.398 C 14.461,2.219 14.32,2.188 14.176,2.152 Z m -5.688,19.301 3.035,-2.078 0,-3.078 -3.753,-3.176 -2.614,1.191 -0.218,0.102 -1.184,3.383 c 1.164,1.652 2.812,2.937 4.734,3.656 z m 11.739,-3.641 -1.188,-3.41 -2.855,-1.289 -3.762,3.184 0,3.078 3.047,2.082 c 1.922,-0.711 3.59,-1.996 4.758,-3.645 z M 1.961,11.078 4.801,13.539 7.422,12.344 7.453,12.332 8.496,8.242 7.414,6.207 3.719,6.254 C 2.75,7.648 2.121,9.297 1.961,11.078 Z m 14.625,-4.871 -1.082,2.035 1.047,4.094 2.644,1.207 2.844,-2.465 C 21.879,9.297 21.25,7.648 20.281,6.254 L 16.586,6.207 Z" /></clipPath><clipPath
       id="clipPath34"
       clipPathUnits="userSpaceOnUse"><path
         id="path36"
         d="M 0,0 24,0 24,24 0,24 0,0 Z" /></clipPath><clipPath
       id="clipPath46"
       clipPathUnits="userSpaceOnUse"><path
         id="path48"
         d="M 1,1 23,1 23,23 1,23 1,1 Z" /></clipPath><clipPath
       id="clipPath56"
       clipPathUnits="userSpaceOnUse"><path
         id="path58"
         d="M 1,23 23,23 23,1 1,1 1,23 Z" /></clipPath><clipPath
       id="clipPath66"
       clipPathUnits="userSpaceOnUse"><path
         id="path68"
         d="M 0,0 24,0 24,24 0,24 0,0 Z" /></clipPath><clipPath
       id="clipPath80"
       clipPathUnits="userSpaceOnUse"><path
         id="path82"
         d="M 1,1 23,1 23,23 1,23 1,1 Z" /></clipPath><clipPath
       id="clipPath90"
       clipPathUnits="userSpaceOnUse"><path
         id="path92"
         d="M 1,23 23,23 23,1 1,1 1,23 Z" /></clipPath><clipPath
       id="clipPath100"
       clipPathUnits="userSpaceOnUse"><path
         id="path102"
         d="M 0,0 24,0 24,24 0,24 0,0 Z" /></clipPath></defs><g
     id="g12"
     transform="matrix(1.25,0,0,-1.25,0,30)"
     style="fill:#ff7c00;fill-opacity:1" /><g
     id="g14"
     transform="matrix(1.25,0,0,-1.25,0,30)"
     style="fill:#ff7c00;fill-opacity:1"><g
       id="g16"
       clip-path="url(#clipPath18)"
       style="fill:#ff7c00;fill-opacity:1"><g
         id="g22"
         clip-path="url(#clipPath24)"
         style="fill:#ff7c00;fill-opacity:1"><g
           id="g28"
           style="fill:#ff7c00;fill-opacity:1"><g
             id="g30"
             style="fill:#ff7c00;fill-opacity:1"><g
               id="g32"
               clip-path="url(#clipPath34)"
               style="fill:#ff7c00;fill-opacity:1"><g
                 id="g38"
                 style="fill:#ff7c00;fill-opacity:1"><g
                   id="g40"
                   style="fill:#ff7c00;fill-opacity:1"><g
                     id="g42"
                     style="fill:#ff7c00;fill-opacity:1"><g
                       id="g44"
                       clip-path="url(#clipPath46)"
                       style="fill:#ff7c00;fill-opacity:1"><g
                         id="g50"
                         style="fill:#ff7c00;fill-opacity:1" /><g
                         id="g52"
                         style="fill:#ff7c00;fill-opacity:1"><g
                           id="g54"
                           clip-path="url(#clipPath56)"
                           style="fill:#ff7c00;fill-opacity:1"><g
                             id="g60"
                             style="fill:#ff7c00;fill-opacity:1"><g
                               id="g62"
                               style="fill:#ff7c00;fill-opacity:1"><g
                                 id="g64"
                                 clip-path="url(#clipPath66)"
                                 style="fill:#ff7c00;fill-opacity:1"><g
                                   id="g70"
                                   style="fill:#ff7c00;fill-opacity:1"><path
                                   inkscape:connector-curvature="0"
                                   d="M 0,0 24,0 24,24 0,24 0,0 Z"
                                   style="fill:#ff7c00;fill-opacity:1;fill-rule:nonzero;stroke:none"
                                   id="path72" /></g></g></g></g><g
                             id="g74"
                             style="fill:#ff7c00;fill-opacity:1"><g
                               id="g76"
                               style="fill:#ff7c00;fill-opacity:1"><g
                                 id="g78"
                                 clip-path="url(#clipPath80)"
                                 style="fill:#ff7c00;fill-opacity:1"><g
                                   id="g84"
                                   style="fill:#ff7c00;fill-opacity:1" /><g
                                   id="g86"
                                   style="fill:#ff7c00;fill-opacity:1"><g
                                   id="g88"
                                   clip-path="url(#clipPath90)"
                                   style="fill:#ff7c00;fill-opacity:1"><g
                                   id="g94"
                                   style="fill:#ff7c00;fill-opacity:1"><g
                                   id="g96"
                                   style="fill:#ff7c00;fill-opacity:1"><g
                                   id="g98"
                                   clip-path="url(#clipPath100)"
                                   style="fill:#ff7c00;fill-opacity:1"><g
                                   id="g104"
                                   style="fill:#ff7c00;fill-opacity:1"><path
                                   inkscape:connector-curvature="0"
                                   d="M 0,0 24,0 24,24 0,24 0,0 Z"
                                   style="fill:#ff7c00;fill-opacity:1;fill-rule:nonzero;stroke:none"
                                   id="path106" /></g></g></g></g></g></g></g></g></g></g></g></g></g></g></g></g></g></g></g></g></g></svg>