<?xml version="1.0" encoding="UTF-8" standalone="no"?>
<svg
   xmlns:dc="http://purl.org/dc/elements/1.1/"
   xmlns:cc="http://creativecommons.org/ns#"
   xmlns:rdf="http://www.w3.org/1999/02/22-rdf-syntax-ns#"
   xmlns:svg="http://www.w3.org/2000/svg"
   xmlns="http://www.w3.org/2000/svg"
   viewBox="0 0 30 30"
   height="30"
   width="30"
   xml:space="preserve"
   version="1.1"
   id="svg5530"><metadata
     id="metadata5536"><rdf:RDF><cc:Work
         rdf:about=""><dc:format>image/svg+xml</dc:format><dc:type
           rdf:resource="http://purl.org/dc/dcmitype/StillImage" /><dc:title></dc:title></cc:Work></rdf:RDF></metadata><defs
     id="defs5534"><clipPath
       id="clipPath5546"
       clipPathUnits="userSpaceOnUse"><path
         id="path5548"
         d="M 2,21 22,21 22,3 2,3 2,21 Z" /></clipPath><clipPath
       id="clipPath5552"
       clipPathUnits="userSpaceOnUse"><path
         id="path5554"
         d="M 19.559,9.312 C 21.441,8.594 21.883,8.156 21.934,7.824 22,7.406 22,3.812 22,3.812 l -4.363,0 c -0.008,0.825 -0.032,3.137 -0.075,3.43 -0.062,0.422 -0.003,1.32 -2.433,2.246 -0.34,0.129 -0.621,0.231 -0.859,0.317 0.8,0.379 0.664,0.629 0.664,1.226 0,0.836 -0.411,0.531 -0.676,2.129 -0.102,0.633 -0.188,0.211 -0.406,1.219 -0.114,0.527 0.078,0.566 0.054,0.816 -0.023,0.25 -0.051,0.473 -0.09,0.993 -0.054,0.644 0.52,2.32 2.563,2.32 2.047,0 2.617,-1.676 2.562,-2.32 -0.043,-0.512 -0.066,-0.743 -0.089,-0.993 -0.028,-0.25 0.171,-0.289 0.054,-0.816 -0.218,-1.008 -0.304,-0.59 -0.406,-1.219 -0.262,-1.598 -0.68,-1.289 -0.68,-2.129 0,-1.301 -0.109,-1.019 1.739,-1.719 z M 16.508,3.812 2,3.812 c 0,0 0,2.887 0.09,3.43 0.066,0.422 0.637,0.988 3.062,1.914 2.387,0.906 2.243,0.782 2.243,2.461 0,1.082 -0.532,0.379 -0.872,2.438 -0.136,0.812 -0.242,0.269 -0.527,1.57 -0.152,0.684 0.102,0.73 0.07,1.059 -0.035,0.324 -0.066,0.617 -0.121,1.281 -0.066,0.828 0.668,2.996 3.309,2.996 2.644,0 3.379,-2.172 3.308,-2.996 -0.054,-0.664 -0.085,-0.957 -0.117,-1.281 -0.031,-0.329 0.223,-0.379 0.075,-1.059 -0.282,-1.301 -0.391,-0.758 -0.524,-1.57 -0.34,-2.059 -0.875,-1.356 -0.875,-2.438 C 11.121,10.176 11.012,10 12.5,9.473 12.746,9.383 13.027,9.281 13.363,9.156 15.785,8.23 16.355,7.664 16.426,7.242 16.469,6.957 16.492,6 16.5,5.168 16.508,4.441 16.508,3.812 16.508,3.812 Z" /></clipPath><clipPath
       id="clipPath5562"
       clipPathUnits="userSpaceOnUse"><path
         id="path5564"
         d="M 0,0 24,0 24,24 0,24 0,0 Z" /></clipPath><clipPath
       id="clipPath5574"
       clipPathUnits="userSpaceOnUse"><path
         id="path5576"
         d="M 0,0 24,0 24,24 0,24 0,0 Z" /></clipPath><clipPath
       id="clipPath5584"
       clipPathUnits="userSpaceOnUse"><path
         id="path5586"
         d="M 2,21 22,21 22,3 2,3 2,21 Z" /></clipPath><clipPath
       id="clipPath5594"
       clipPathUnits="userSpaceOnUse"><path
         id="path5596"
         d="M 0,0 24,0 24,24 0,24 0,0 Z" /></clipPath><clipPath
       id="clipPath5610"
       clipPathUnits="userSpaceOnUse"><path
         id="path5612"
         d="M 2,3 22,3 22,21 2,21 2,3 Z" /></clipPath><clipPath
       id="clipPath5620"
       clipPathUnits="userSpaceOnUse"><path
         id="path5622"
         d="M 2,21 22,21 22,3 2,3 2,21 Z" /></clipPath><clipPath
       id="clipPath5630"
       clipPathUnits="userSpaceOnUse"><path
         id="path5632"
         d="M 0,0 24,0 24,24 0,24 0,0 Z" /></clipPath></defs><g
     transform="matrix(1.25,0,0,-1.25,0,30)"
     id="g5538"><g
       id="g5540" /><g
       id="g5542"><g
         clip-path="url(#clipPath5546)"
         id="g5544"><g
           clip-path="url(#clipPath5552)"
           id="g5550"><g
             id="g5556"><g
               id="g5558"><g
                 clip-path="url(#clipPath5562)"
                 id="g5560"><g
                   id="g5566"><g
                     id="g5568"><g
                       id="g5570"><g
                         clip-path="url(#clipPath5574)"
                         id="g5572"><g
                           id="g5578" /><g
                           id="g5580"><g
                             clip-path="url(#clipPath5584)"
                             id="g5582"><g
                               id="g5588"><g
                                 id="g5590"><g
                                   clip-path="url(#clipPath5594)"
                                   id="g5592"><g
                                   id="g5598"><path
                                   id="path5600"
                                   style="fill:#7a0126;fill-opacity:1;fill-rule:nonzero;stroke:none"
                                   d="M 0,0 24,0 24,24 0,24 0,0 Z" /></g></g></g></g></g></g><g
                           id="g5602"><g
                             id="g5604"><g
                               id="g5606"><g
                                 clip-path="url(#clipPath5610)"
                                 id="g5608"><g
                                   id="g5614" /><g
                                   id="g5616"><g
                                   clip-path="url(#clipPath5620)"
                                   id="g5618"><g
                                   id="g5624"><g
                                   id="g5626"><g
                                   clip-path="url(#clipPath5630)"
                                   id="g5628"><g
                                   id="g5634"><path
                                   id="path5636"
                                   style="fill:#7a0126;fill-opacity:1;fill-rule:nonzero;stroke:none"
                                   d="M 0,0 24,0 24,24 0,24 0,0 Z" /></g></g></g></g></g></g></g></g></g></g></g></g></g></g></g></g></g></g></g></g></g></svg>