<?xml version="1.0" encoding="UTF-8" standalone="no"?>
<svg
   xmlns:dc="http://purl.org/dc/elements/1.1/"
   xmlns:cc="http://creativecommons.org/ns#"
   xmlns:rdf="http://www.w3.org/1999/02/22-rdf-syntax-ns#"
   xmlns:svg="http://www.w3.org/2000/svg"
   xmlns="http://www.w3.org/2000/svg"
   viewBox="0 0 30 30"
   height="30"
   width="30"
   xml:space="preserve"
   version="1.1"
   id="svg6826"><metadata
     id="metadata6832"><rdf:RDF><cc:Work
         rdf:about=""><dc:format>image/svg+xml</dc:format><dc:type
           rdf:resource="http://purl.org/dc/dcmitype/StillImage" /><dc:title></dc:title></cc:Work></rdf:RDF></metadata><defs
     id="defs6830"><clipPath
       id="clipPath6842"
       clipPathUnits="userSpaceOnUse"><path
         id="path6844"
         d="M 10.09,8.41 11.5,7 l 5,5 -5,5 L 10.09,15.59 12.67,13 3,13 3,11 12.67,11 10.09,8.41 Z M 19,21 5,21 C 3.89,21 3,20.1 3,19 l 0,-4 2,0 0,4 14,0 L 19,5 5,5 5,9 3,9 3,5 C 3,3.9 3.89,3 5,3 l 14,0 c 1.1,0 2,0.9 2,2 l 0,14 c 0,1.1 -0.9,2 -2,2 z" /></clipPath><clipPath
       id="clipPath6848"
       clipPathUnits="userSpaceOnUse"><path
         id="path6850"
         d="m -2,-2 28,0 0,28 -28,0 0,-28 z" /></clipPath><clipPath
       id="clipPath6852"
       clipPathUnits="userSpaceOnUse"><path
         id="path6854"
         d="M 3,3 21,3 21,21 3,21 3,3 Z" /></clipPath><clipPath
       id="clipPath6856"
       clipPathUnits="userSpaceOnUse"><path
         style="clip-rule:evenodd"
         id="path6858"
         d="M 0,24 24,24 24,0 0,0 0,24 Z" /></clipPath><clipPath
       id="clipPath6860"
       clipPathUnits="userSpaceOnUse"><path
         id="path6862"
         d="M 3,3 21,3 21,21 3,21 3,3 Z" /></clipPath></defs><g
     transform="matrix(1.25,0,0,-1.25,0,30)"
     id="g6834"><g
       id="g6836" /><g
       id="g6838"><g
         clip-path="url(#clipPath6842)"
         id="g6840"><g
           id="g6846" /><g
           id="g6864"><g
             id="g6866"
             clip-path="url(#clipPath6848)"><g
               id="g6868" /><g
               id="g6870"><g
                 id="g6872"
                 clip-path="url(#clipPath6852)"><path
                   id="path6874"
                   style="fill:#000000;fill-opacity:1;fill-rule:nonzero;stroke:none"
                   d="m -2,-2 28,0 0,28 -28,0 0,-28 z" /></g></g><g
               id="g6876"><g
                 id="g6878"
                 clip-path="url(#clipPath6856)"><g
                   id="g6880"
                   clip-path="url(#clipPath6860)"><path
                     id="path6882"
                     style="fill:#7a0126;fill-opacity:1;fill-rule:nonzero;stroke:none"
                     d="m -5,-5 34,0 0,34 -34,0 0,-34 z" /></g></g></g></g></g></g></g></g></svg>