<?xml version="1.0" encoding="UTF-8" standalone="no"?>
<svg
   xmlns:dc="http://purl.org/dc/elements/1.1/"
   xmlns:cc="http://creativecommons.org/ns#"
   xmlns:rdf="http://www.w3.org/1999/02/22-rdf-syntax-ns#"
   xmlns:svg="http://www.w3.org/2000/svg"
   xmlns="http://www.w3.org/2000/svg"
   xmlns:sodipodi="http://sodipodi.sourceforge.net/DTD/sodipodi-0.dtd"
   xmlns:inkscape="http://www.inkscape.org/namespaces/inkscape"
   width="24px"
   height="24px"
   viewBox="0 0 24 24"
   version="1.1"
   id="svg2"
   inkscape:version="0.91 r13725"
   sodipodi:docname="friends-bottom-nav-active.svg">
  <metadata
     id="metadata15">
    <rdf:RDF>
      <cc:Work
         rdf:about="">
        <dc:format>image/svg+xml</dc:format>
        <dc:type
           rdf:resource="http://purl.org/dc/dcmitype/StillImage" />
      </cc:Work>
    </rdf:RDF>
  </metadata>
  <sodipodi:namedview
     pagecolor="#ffffff"
     bordercolor="#666666"
     borderopacity="1"
     objecttolerance="10"
     gridtolerance="10"
     guidetolerance="10"
     inkscape:pageopacity="0"
     inkscape:pageshadow="2"
     inkscape:window-width="879"
     inkscape:window-height="777"
     id="namedview13"
     showgrid="false"
     inkscape:zoom="9.8333333"
     inkscape:cx="13.322034"
     inkscape:cy="7.9322033"
     inkscape:window-x="208"
     inkscape:window-y="31"
     inkscape:window-maximized="0"
     inkscape:current-layer="svg2" />
  <!-- Generator: Sketch 41.2 (35397) - http://www.bohemiancoding.com/sketch -->
  <title
     id="title4">leaderboard-bottom-nav-active</title>
  <desc
     id="desc6">Created with Sketch.</desc>
  <defs
     id="defs8" />
  <path
     inkscape:connector-curvature="0"
     d="m 16.689231,15.985617 0,0 z m 0,0 q 1.058858,0.403375 1.663921,1.310968 0.655483,0.857171 0.655483,1.966452 l -1.411811,0 -12.6054599,0 q 0,-1.815187 1.3613896,-2.773202 0.5042184,-0.352952 2.47067,-0.806749 1.2101243,-0.151265 1.3109683,-0.655484 0.05042,-0.201687 0.05042,-1.159703 0,-0.151266 -0.100844,-0.252109 Q 9.8822824,13.414102 9.6805951,12.909884 9.5797514,12.506509 9.4789076,11.69976 9.2772204,11.750182 9.1259548,11.548494 9.0251112,11.346807 8.9242675,11.044276 8.8738456,10.691323 8.8738456,10.640901 8.6721582,9.531621 9.0251112,9.582043 8.8738456,9.380356 8.7730019,8.624028 8.6217364,7.514748 8.9242675,6.657577 9.2772204,5.6995617 10.184814,5.1953433 q 0.907593,-0.5042184 1.966452,-0.4537965 1.008436,0.050422 1.815186,0.605062 0.857171,0.5546403 1.159702,1.5126552 0.252109,0.705906 0.05042,1.966452 -0.100844,0.605062 -0.201688,0.756327 0.151266,-0.05042 0.201688,0.100844 0.100843,0.151265 0.05042,0.403374 0,0.201687 -0.05042,0.403375 0,0.151265 -0.05042,0.252109 l -0.100844,0.352953 q -0.05042,0.352953 -0.201687,0.504218 -0.100844,0.151266 -0.302531,0.100844 -0.100844,1.10928 -0.352953,1.563077 0,0.05042 -0.201687,0.252109 -0.151266,0.201687 -0.151266,0.252109 l 0,0.55464 q 0,0.50422 0.100844,0.756329 0.100844,0.252109 0.705906,0.403375 0.352952,0.151265 1.008436,0.252109 0.705906,0.100844 1.058859,0.252109 z m -10.3868992,-0.655484 0.1008437,0 -0.050422,0 -0.050422,0 z m 0,0 q -0.7059057,0.403375 -1.2101241,0.958015 -0.2521092,0.55464 -0.3529528,0.55464 l -1.2605459,0 -2.77320103,0 q 0,-1.512655 1.51265513,-2.016873 0.050422,0 0.4537965,-0.100845 0.4033747,-0.100844 0.7059058,-0.201687 0.302531,-0.100844 0.3529528,-0.252109 0.050422,-0.151266 0.050422,-0.80675 -1.0084368,0.100844 -1.6134989,-0.352953 l 0.2016872,-0.605062 q 0.050422,-0.100843 0.1008437,-0.252109 0.050422,-0.201687 0.050422,-0.302531 0.050422,-0.453796 0.050422,-1.411811 0,-1.865608 0.4033747,-2.47067 0.5546403,-0.907593 1.9160299,-0.907593 2.0672954,0 2.3698264,1.865608 0.1008436,0.453796 0.1008436,1.361389 0,0.857171 0,1.058859 0,0.55464 0.2521092,1.210124 0.2016874,0.403375 0.1512655,0.453796 l -0.302531,0.151266 q -0.2521092,0.100844 -0.8571712,0.201687 -0.4033747,0 -0.4537966,0.05042 l 0,0.55464 q 0,0.302531 0.2521092,0.352953 0.1008437,0.05042 0.3529529,0.100844 0.302531,0.05042 0.5042184,0.151265 0.2016873,0.05042 0.302531,0.151267 0.1512655,0.252109 -0.1008437,0.252109 -0.7059057,0.100844 -1.0588586,0.252109 l -0.050422,0 -0.2521092,0.100844 0.050422,0 q 0.1008437,-0.05042 0.1512655,-0.100844 z M 21.731415,14.825915 q 1.563077,0.504218 1.563077,2.016873 l -4.033747,0 q -0.100844,-0.352953 -0.80675,-0.958015 -0.857171,-0.655483 -1.411811,-0.756327 -0.05042,0 -0.252109,0 -0.201688,0 -0.352953,-0.05042 -0.100844,-0.05042 -0.05042,-0.201687 0.100844,-0.151267 0.655484,-0.302532 0.756327,-0.201688 0.806749,-0.352953 l 0,-0.705906 q -0.302531,0 -0.907593,-0.100844 -0.302531,-0.100843 -0.55464,-0.201687 -0.201687,-0.100844 0,-0.55464 0.151265,-0.352953 0.252109,-2.571514 0.100844,-2.21856 1.36139,-2.722779 1.260546,-0.504218 2.420248,0.151266 1.008437,0.605062 1.008437,2.218561 0,0.201687 -0.05042,0.756327 0,0.55464 0,0.857171 0,0.302531 0.100843,0.756328 0.100844,0.453796 0.302532,0.756327 0.151265,0.252109 0,0.302531 -0.05042,0.05042 -0.151266,0.05042 -0.100844,0 -0.151266,0.05042 L 20.874247,13.4141 q -0.201687,0.05042 -0.655483,0.05042 0,0.80675 0.05042,0.857171 0.151266,0.151266 0.403375,0.25211 0.252109,0.100843 0.55464,0.151265 0.352953,0.05042 0.504219,0.100845 z"
     style="color:#000000;font-style:normal;font-variant:normal;font-weight:500;font-stretch:normal;font-size:25.81598091px;line-height:125%;font-family:Ionicons;-inkscape-font-specification:'Ionicons Medium';text-indent:0;text-align:start;text-decoration:none;text-decoration-line:none;letter-spacing:0px;word-spacing:0px;text-transform:none;direction:ltr;block-progression:tb;writing-mode:lr-tb;baseline-shift:baseline;text-anchor:start;display:inline;overflow:visible;visibility:visible;fill:#025fbc;fill-opacity:1;fill-rule:nonzero;stroke:none;stroke-width:1px;stroke-linecap:butt;stroke-linejoin:miter;stroke-opacity:1;marker:none;enable-background:accumulate"
     id="path4148" />
</svg>
