<?xml version="1.0" encoding="UTF-8" standalone="no"?>
<svg
   xmlns:dc="http://purl.org/dc/elements/1.1/"
   xmlns:cc="http://creativecommons.org/ns#"
   xmlns:rdf="http://www.w3.org/1999/02/22-rdf-syntax-ns#"
   xmlns:svg="http://www.w3.org/2000/svg"
   xmlns="http://www.w3.org/2000/svg"
   xmlns:sodipodi="http://sodipodi.sourceforge.net/DTD/sodipodi-0.dtd"
   xmlns:inkscape="http://www.inkscape.org/namespaces/inkscape"
   width="24px"
   height="24px"
   viewBox="0 0 24 24"
   version="1.1"
   id="svg54"
   inkscape:version="0.91 r13725"
   sodipodi:docname="leaderboard-bottom-nav-active.svg">
  <metadata
     id="metadata67">
    <rdf:RDF>
      <cc:Work
         rdf:about="">
        <dc:format>image/svg+xml</dc:format>
        <dc:type
           rdf:resource="http://purl.org/dc/dcmitype/StillImage" />
      </cc:Work>
    </rdf:RDF>
  </metadata>
  <sodipodi:namedview
     pagecolor="#ffffff"
     bordercolor="#666666"
     borderopacity="1"
     objecttolerance="10"
     gridtolerance="10"
     guidetolerance="10"
     inkscape:pageopacity="0"
     inkscape:pageshadow="2"
     inkscape:window-width="1415"
     inkscape:window-height="858"
     id="namedview65"
     showgrid="false"
     inkscape:zoom="9.8333333"
     inkscape:cx="-5.5932204"
     inkscape:cy="12"
     inkscape:window-x="0"
     inkscape:window-y="0"
     inkscape:window-maximized="0"
     inkscape:current-layer="svg54" />
  <!-- Generator: Sketch 41.2 (35397) - http://www.bohemiancoding.com/sketch -->
  <title
     id="title56">leaderboard-bottom-nav-active</title>
  <desc
     id="desc58">Created with Sketch.</desc>
  <defs
     id="defs60" />
  <g
     id="Symbols"
     stroke="none"
     stroke-width="1"
     fill="none"
     fill-rule="evenodd"
     style="fill:#025fbc;fill-opacity:1">
    <g
       id="leaderboard-bottom-nav-active"
       fill="#123566"
       style="fill:#025fbc;fill-opacity:1">
      <path
         d="M19.3625799,3.67890681 L17.545839,3.67890681 L17.545839,4.87690277 L18.7251597,4.87690277 L18.7251597,7.55240891 C18.7251597,8.72846556 18.3234747,9.43591772 17.4511579,9.740947 C17.3784057,10.1968243 17.2632792,10.6354288 17.1093903,11.0511244 C18.9817273,10.7668829 20,9.55003855 20,7.55240891 L20,4.27793509 C20.0000645,3.94708772 19.7146669,3.67890681 19.3625799,3.67890681 Z M7.79285297,16.8369231 C7.44083039,16.8369231 7.15536833,17.105104 7.15536833,17.4359514 L7.15536833,20.4009717 C7.15536833,20.7317585 7.44083039,21 7.79285297,21 L16.207276,21 C16.5592986,21 16.8447606,20.7317585 16.8447606,20.4009717 L16.8447606,17.4359514 C16.8447606,17.105104 16.5592986,16.8369231 16.207276,16.8369231 L7.79285297,16.8369231 Z M6.54884208,9.74100761 C5.67652524,9.43597833 5.27484027,8.72852617 5.27484027,7.55246952 L5.27484027,4.87690277 L6.45416104,4.87690277 L6.45416104,3.67890681 L4.63748463,3.67890681 C4.28539756,3.67890681 4,3.94708772 4,4.27793509 L4,7.55240891 C4,9.55003855 5.0182727,10.7668829 6.89060969,11.0511244 C6.73678524,10.6354288 6.62159427,10.1968849 6.54884208,9.74100761 Z M16.8446962,3.59902829 C16.8446962,3.26824152 16.5592341,3 16.2072115,3 L7.79285297,3 C7.44083039,3 7.15536833,3.26824152 7.15536833,3.59902829 L7.15536833,8.54076922 C7.15536833,10.0875519 7.64496221,11.4955472 8.53391917,12.5053013 C9.42874534,13.5217221 10.6597279,14.0815384 12.0000322,14.0815384 C13.3403366,14.0815384 14.5713192,13.5217828 15.4661453,12.5053013 C16.3551023,11.4955472 16.8446962,10.0875519 16.8446962,8.54076922 L16.8446962,3.59902829 L16.8446962,3.59902829 Z M13.6892633,14.7705058 C13.6892633,14.6057791 13.5504666,14.504931 13.3808405,14.5463854 C13.3808405,14.5463854 12.5863711,14.7403847 12.0000322,14.7403847 C11.4136934,14.7403847 10.619224,14.5463854 10.619224,14.5463854 C10.4495979,14.504931 10.3108012,14.6057791 10.3108012,14.7705058 L10.3108012,15.6389271 C10.3108012,15.8036539 10.4542417,15.9383807 10.629479,15.9383807 L13.3705855,15.9383807 C13.5458873,15.9383807 13.6892633,15.8035933 13.6892633,15.6389271 L13.6892633,14.7705058 Z"
         id="Combined-Shape"
         style="fill:#025fbc;fill-opacity:1" />
    </g>
  </g>
</svg>
