<?xml version="1.0" encoding="UTF-8" standalone="no"?>
<svg
   xmlns:dc="http://purl.org/dc/elements/1.1/"
   xmlns:cc="http://creativecommons.org/ns#"
   xmlns:rdf="http://www.w3.org/1999/02/22-rdf-syntax-ns#"
   xmlns:svg="http://www.w3.org/2000/svg"
   xmlns="http://www.w3.org/2000/svg"
   xmlns:xlink="http://www.w3.org/1999/xlink"
   id="svg2"
   version="1.1"
   viewBox="0 0 80 80"
   height="80px"
   width="80px">
  <metadata
     id="metadata40">
    <rdf:RDF>
      <cc:Work
         rdf:about="">
        <dc:format>image/svg+xml</dc:format>
        <dc:type
           rdf:resource="http://purl.org/dc/dcmitype/StillImage" />
        <dc:title>logo-152x152</dc:title>
      </cc:Work>
    </rdf:RDF>
  </metadata>
  <!-- Generator: Sketch 41.2 (35397) - http://www.bohemiancoding.com/sketch -->
  <title
     id="title4">logo-152x152</title>
  <desc
     id="desc6">Created with Sketch.</desc>
  <defs
     id="defs8">
    <polygon
       points="25.4497233 24.9659667 25.4497233 0.0934101272 0.0456868133 0.0934101272 0.0456868133 24.9659667 25.4497233 24.9659667"
       id="path-1" />
    <polygon
       points="3.78595493e-21 0.0387679349 3.78595493e-21 25.6397559 27.1724446 25.6397559 27.1724446 0.0387679349 0 0.0387679349"
       id="path-3" />
    <polygon
       points="14.9589128 0.10886406 0.0915443604 0.10886406 0.0915443604 11.7831965 14.9589128 11.7831965 14.9589128 0.10886406"
       id="path-5" />
  </defs>
  <g
     fill-rule="evenodd"
     fill="none"
     stroke-width="1"
     stroke="none"
     id="Symbols">
    <g
       id="logo-152x152">
      <g
         transform="translate(9.000000, 9.000000)"
         id="Group-2">
        <circle
           r="30.9511719"
           cy="31"
           cx="31"
           fill="#FFFFFF"
           id="Oval-83-Copy-2" />
        <g
           transform="translate(8.302474, 16.556120)"
           id="Page-1-Copy">
          <path
             fill="#BC4B52"
             id="Fill-1"
             d="M31.7818163,5.79903576 C31.7818163,7.59172 30.0203486,9.0449221 27.8475318,9.0449221 C25.6747151,9.0449221 23.9133871,7.59172 23.9133871,5.79903576 C23.9133871,4.00635153 25.6747151,2.55314943 27.8475318,2.55314943 C30.0203486,2.55314943 31.7818163,4.00635153 31.7818163,5.79903576" />
          <g
             transform="translate(20.634115, 2.063411)"
             id="Group-5">
            <mask
               fill="white"
               id="mask-2">
              <use
                 id="use21"
                 xlink:href="#path-1" />
            </mask>
            <g
               id="Clip-4" />
            <path
               mask="url(#mask-2)"
               fill="#D45C66"
               id="Fill-3"
               d="M24.0530083,0.0934101272 C9.57310413,7.23892758 7.21130433,14.3936922 9.61975628,16.9063924 C13.0917095,20.5287494 24.7849162,9.86259347 25.4497792,9.10699002 C13.8100688,24.4255784 3.94383832,27.1606303 0.471745381,23.5381331 C-2.64389164,20.2874831 11.9476145,1.96147256 24.0530083,0.0934101272" />
          </g>
          <g
             transform="translate(0.000000, 4.514706)"
             id="Group-8">
            <mask
               fill="white"
               id="mask-4">
              <use
                 id="use27"
                 xlink:href="#path-3" />
            </mask>
            <g
               id="Clip-7" />
            <path
               mask="url(#mask-4)"
               fill="#BC4B52"
               id="Fill-6"
               d="M11.2204836,0.0387679349 C17.0747692,2.33682239 21.5853612,5.31244003 21.5853612,10.554868 C21.5853612,18.1121634 13.2994373,24.238674 3.07814769,24.238674 C2.02931247,24.238674 1.00128914,24.1732435 -5.58708333e-05,24.0492478 C2.58536694,25.0640514 5.53408985,25.6397559 8.66523103,25.6397559 C18.8865206,25.6397559 27.1724446,19.5132453 27.1724446,11.9559499 C27.1724446,5.17401315 21.3575479,0.0387679349 11.2204836,0.0387679349" />
          </g>
          <path
             fill="#2B1E17"
             id="Fill-9"
             d="M19.6544373,9.59578545 C19.8016569,10.3319139 19.8798761,11.0929815 19.8798761,11.8725435 C19.8798761,18.2316337 15.586901,23.7095835 9.2472375,23.7095835 C7.89977267,23.7095835 6.1649833,22.4560356 4.96376038,22.0282853 L2.15918422,26.002454 C3.66853479,26.602117 5.31448954,26.8785504 7.03573024,26.9320718 C14.5549667,27.165492 20.2817271,20.9832183 20.2817271,13.6450521 C20.2817271,12.2329017 20.0613166,10.8725913 19.6544373,9.59578545" />
          <g
             transform="translate(29.471865, 0.031244)"
             id="Group-13">
            <mask
               fill="white"
               id="mask-6">
              <use
                 id="use34"
                 xlink:href="#path-5" />
            </mask>
            <g
               id="Clip-12" />
            <path
               mask="url(#mask-6)"
               fill="#2B1E17"
               id="Fill-11"
               d="M14.9589128,0.108822028 C8.31601038,2.52190531 2.70574065,6.86876176 0.0915443604,11.7831965 C6.11749309,5.85003514 11.0462783,3.90000942 14.6014791,3.03203921 L14.9589128,0.108822028 Z" />
          </g>
        </g>
      </g>
    </g>
  </g>
</svg>
