<?xml version="1.0" encoding="UTF-8" standalone="no"?>
<svg
   xmlns:dc="http://purl.org/dc/elements/1.1/"
   xmlns:cc="http://creativecommons.org/ns#"
   xmlns:rdf="http://www.w3.org/1999/02/22-rdf-syntax-ns#"
   xmlns:svg="http://www.w3.org/2000/svg"
   xmlns="http://www.w3.org/2000/svg"
   xmlns:sodipodi="http://sodipodi.sourceforge.net/DTD/sodipodi-0.dtd"
   xmlns:inkscape="http://www.inkscape.org/namespaces/inkscape"
   width="24px"
   height="24px"
   viewBox="0 0 24 24"
   version="1.1"
   id="svg2"
   inkscape:version="0.91 r13725"
   sodipodi:docname="challenges-bottom-nav-active.svg">
  <metadata
     id="metadata15">
    <rdf:RDF>
      <cc:Work
         rdf:about="">
        <dc:format>image/svg+xml</dc:format>
        <dc:type
           rdf:resource="http://purl.org/dc/dcmitype/StillImage" />
      </cc:Work>
    </rdf:RDF>
  </metadata>
  <sodipodi:namedview
     pagecolor="#ffffff"
     bordercolor="#666666"
     borderopacity="1"
     objecttolerance="10"
     gridtolerance="10"
     guidetolerance="10"
     inkscape:pageopacity="0"
     inkscape:pageshadow="2"
     inkscape:window-width="1116"
     inkscape:window-height="791"
     id="namedview13"
     showgrid="false"
     inkscape:zoom="9.8333333"
     inkscape:cx="-0.71186441"
     inkscape:cy="12"
     inkscape:window-x="0"
     inkscape:window-y="0"
     inkscape:window-maximized="0"
     inkscape:current-layer="svg2" />
  <!-- Generator: Sketch 41.2 (35397) - http://www.bohemiancoding.com/sketch -->
  <title
     id="title4">challenges-bottom-nav-active</title>
  <desc
     id="desc6">Created with Sketch.</desc>
  <defs
     id="defs8" />
  <g
     id="Symbols"
     stroke="none"
     stroke-width="1"
     fill="none"
     fill-rule="evenodd"
     style="fill:#7a0126;fill-opacity:1">
    <g
       id="challenges-bottom-nav-active"
       fill="#123566"
       style="fill:#7a0126;fill-opacity:1">
      <path
         d="M16.5,12 C17.88,12 18.99,10.88 18.99,9.5 C18.99,8.12 17.88,7 16.5,7 C15.12,7 14,8.12 14,9.5 C14,10.88 15.12,12 16.5,12 Z M9,11 C10.66,11 11.99,9.66 11.99,8 C11.99,6.34 10.66,5 9,5 C7.34,5 6,6.34 6,8 C6,9.66 7.34,11 9,11 Z M16.5,14 C14.67,14 11,14.92 11,16.75 L11,19 L22,19 L22,16.75 C22,14.92 18.33,14 16.5,14 Z M9,13 C6.67,13 2,14.17 2,16.5 L2,19 L9,19 L9,16.75 C9,15.9 9.33,14.41 11.37,13.28 C10.5,13.1 9.66,13 9,13 Z"
         id="Shape"
         style="fill:#7a0126;fill-opacity:1" />
    </g>
  </g>
</svg>
