<?xml version="1.0" encoding="UTF-8" standalone="no"?>
<svg
   xmlns:dc="http://purl.org/dc/elements/1.1/"
   xmlns:cc="http://creativecommons.org/ns#"
   xmlns:rdf="http://www.w3.org/1999/02/22-rdf-syntax-ns#"
   xmlns:svg="http://www.w3.org/2000/svg"
   xmlns="http://www.w3.org/2000/svg"
   viewBox="0 0 30 30"
   height="30"
   width="30"
   xml:space="preserve"
   version="1.1"
   id="svg2"><metadata
     id="metadata8"><rdf:RDF><cc:Work
         rdf:about=""><dc:format>image/svg+xml</dc:format><dc:type
           rdf:resource="http://purl.org/dc/dcmitype/StillImage" /><dc:title></dc:title></cc:Work></rdf:RDF></metadata><defs
     id="defs6"><clipPath
       id="clipPath18"
       clipPathUnits="userSpaceOnUse"><path
         id="path20"
         d="M 1,23 23,23 23,1 1,1 1,23 Z" /></clipPath><clipPath
       id="clipPath24"
       clipPathUnits="userSpaceOnUse"><path
         id="path26"
         d="M 12,23 C 5.926,23 1,18.074 1,12 1,5.926 5.926,1 12,1 18.074,1 23,5.926 23,12 23,18.074 18.074,23 12,23 Z M 14.176,2.152 C 13.461,2.012 12.574,1.934 11.848,1.918 11.152,1.93 10.469,2.012 9.812,2.156 9.699,2.184 9.582,2.215 9.453,2.25 l -1.289,3.461 1.035,2.059 5.602,0 0.027,-0.059 1.024,-2.055 -1.25,-3.398 C 14.461,2.219 14.32,2.188 14.176,2.152 Z m -5.688,19.301 3.035,-2.078 0,-3.078 -3.753,-3.176 -2.614,1.191 -0.218,0.102 -1.184,3.383 c 1.164,1.652 2.812,2.937 4.734,3.656 z m 11.739,-3.641 -1.188,-3.41 -2.855,-1.289 -3.762,3.184 0,3.078 3.047,2.082 c 1.922,-0.711 3.59,-1.996 4.758,-3.645 z M 1.961,11.078 4.801,13.539 7.422,12.344 7.453,12.332 8.496,8.242 7.414,6.207 3.719,6.254 C 2.75,7.648 2.121,9.297 1.961,11.078 Z m 14.625,-4.871 -1.082,2.035 1.047,4.094 2.644,1.207 2.844,-2.465 C 21.879,9.297 21.25,7.648 20.281,6.254 L 16.586,6.207 Z" /></clipPath><clipPath
       id="clipPath34"
       clipPathUnits="userSpaceOnUse"><path
         id="path36"
         d="M 0,0 24,0 24,24 0,24 0,0 Z" /></clipPath><clipPath
       id="clipPath46"
       clipPathUnits="userSpaceOnUse"><path
         id="path48"
         d="M 1,1 23,1 23,23 1,23 1,1 Z" /></clipPath><clipPath
       id="clipPath56"
       clipPathUnits="userSpaceOnUse"><path
         id="path58"
         d="M 1,23 23,23 23,1 1,1 1,23 Z" /></clipPath><clipPath
       id="clipPath66"
       clipPathUnits="userSpaceOnUse"><path
         id="path68"
         d="M 0,0 24,0 24,24 0,24 0,0 Z" /></clipPath><clipPath
       id="clipPath80"
       clipPathUnits="userSpaceOnUse"><path
         id="path82"
         d="M 1,1 23,1 23,23 1,23 1,1 Z" /></clipPath><clipPath
       id="clipPath90"
       clipPathUnits="userSpaceOnUse"><path
         id="path92"
         d="M 1,23 23,23 23,1 1,1 1,23 Z" /></clipPath><clipPath
       id="clipPath100"
       clipPathUnits="userSpaceOnUse"><path
         id="path102"
         d="M 0,0 24,0 24,24 0,24 0,0 Z" /></clipPath></defs><g
     transform="matrix(1.25,0,0,-1.25,0,30)"
     id="g10"><g
       id="g12" /><g
       id="g14"><g
         clip-path="url(#clipPath18)"
         id="g16"><g
           clip-path="url(#clipPath24)"
           id="g22"><g
             id="g28"><g
               id="g30"><g
                 clip-path="url(#clipPath34)"
                 id="g32"><g
                   id="g38"><g
                     id="g40"><g
                       id="g42"><g
                         clip-path="url(#clipPath46)"
                         id="g44"><g
                           id="g50" /><g
                           id="g52"><g
                             clip-path="url(#clipPath56)"
                             id="g54"><g
                               id="g60"><g
                                 id="g62"><g
                                   clip-path="url(#clipPath66)"
                                   id="g64"><g
                                   id="g70"><path
                                   id="path72"
                                   style="fill:#7a0126;fill-opacity:1;fill-rule:nonzero;stroke:none"
                                   d="M 0,0 24,0 24,24 0,24 0,0 Z" /></g></g></g></g><g
                               id="g74"><g
                                 id="g76"><g
                                   clip-path="url(#clipPath80)"
                                   id="g78"><g
                                   id="g84" /><g
                                   id="g86"><g
                                   clip-path="url(#clipPath90)"
                                   id="g88"><g
                                   id="g94"><g
                                   id="g96"><g
                                   clip-path="url(#clipPath100)"
                                   id="g98"><g
                                   id="g104"><path
                                   id="path106"
                                   style="fill:#7a0126;fill-opacity:1;fill-rule:nonzero;stroke:none"
                                   d="M 0,0 24,0 24,24 0,24 0,0 Z" /></g></g></g></g></g></g></g></g></g></g></g></g></g></g></g></g></g></g></g></g></g></g></svg>