<?xml version="1.0" encoding="UTF-8" standalone="no"?>
<svg
   xmlns:dc="http://purl.org/dc/elements/1.1/"
   xmlns:cc="http://creativecommons.org/ns#"
   xmlns:rdf="http://www.w3.org/1999/02/22-rdf-syntax-ns#"
   xmlns:svg="http://www.w3.org/2000/svg"
   xmlns="http://www.w3.org/2000/svg"
   viewBox="0 0 30 30"
   height="30"
   width="30"
   xml:space="preserve"
   version="1.1"
   id="svg6178"><metadata
     id="metadata6184"><rdf:RDF><cc:Work
         rdf:about=""><dc:format>image/svg+xml</dc:format><dc:type
           rdf:resource="http://purl.org/dc/dcmitype/StillImage" /><dc:title></dc:title></cc:Work></rdf:RDF></metadata><defs
     id="defs6182"><clipPath
       id="clipPath6194"
       clipPathUnits="userSpaceOnUse"><path
         id="path6196"
         d="M 2,21 22,21 22,4 2,4 2,21 Z" /></clipPath><clipPath
       id="clipPath6200"
       clipPathUnits="userSpaceOnUse"><path
         id="path6202"
         d="m 10,4 0,6 4,0 0,-6 5,0 0,8 3,0 -10,9 -10,-9 3,0 0,-8 5,0 z" /></clipPath><clipPath
       id="clipPath6210"
       clipPathUnits="userSpaceOnUse"><path
         id="path6212"
         d="M 0,0 24,0 24,24 0,24 0,0 Z" /></clipPath><clipPath
       id="clipPath6222"
       clipPathUnits="userSpaceOnUse"><path
         id="path6224"
         d="M 0,0 24,0 24,24 0,24 0,0 Z" /></clipPath><clipPath
       id="clipPath6232"
       clipPathUnits="userSpaceOnUse"><path
         id="path6234"
         d="M 2,21 22,21 22,4 2,4 2,21 Z" /></clipPath><clipPath
       id="clipPath6242"
       clipPathUnits="userSpaceOnUse"><path
         id="path6244"
         d="M 0,0 24,0 24,24 0,24 0,0 Z" /></clipPath><clipPath
       id="clipPath6258"
       clipPathUnits="userSpaceOnUse"><path
         id="path6260"
         d="M 2,4 22,4 22,21 2,21 2,4 Z" /></clipPath><clipPath
       id="clipPath6268"
       clipPathUnits="userSpaceOnUse"><path
         id="path6270"
         d="M 2,21 22,21 22,4 2,4 2,21 Z" /></clipPath><clipPath
       id="clipPath6278"
       clipPathUnits="userSpaceOnUse"><path
         id="path6280"
         d="M 0,0 24,0 24,24 0,24 0,0 Z" /></clipPath></defs><g
     transform="matrix(1.25,0,0,-1.25,0,30)"
     id="g6186"><g
       id="g6188" /><g
       id="g6190"><g
         clip-path="url(#clipPath6194)"
         id="g6192"><g
           clip-path="url(#clipPath6200)"
           id="g6198"><g
             id="g6204"><g
               id="g6206"><g
                 clip-path="url(#clipPath6210)"
                 id="g6208"><g
                   id="g6214"><g
                     id="g6216"><g
                       id="g6218"><g
                         clip-path="url(#clipPath6222)"
                         id="g6220"><g
                           id="g6226" /><g
                           id="g6228"><g
                             clip-path="url(#clipPath6232)"
                             id="g6230"><g
                               id="g6236"><g
                                 id="g6238"><g
                                   clip-path="url(#clipPath6242)"
                                   id="g6240"><g
                                   id="g6246"><path
                                   id="path6248"
                                   style="fill:#7a0126;fill-opacity:1;fill-rule:nonzero;stroke:none"
                                   d="M 0,0 24,0 24,24 0,24 0,0 Z" /></g></g></g></g></g></g><g
                           id="g6250"><g
                             id="g6252"><g
                               id="g6254"><g
                                 clip-path="url(#clipPath6258)"
                                 id="g6256"><g
                                   id="g6262" /><g
                                   id="g6264"><g
                                   clip-path="url(#clipPath6268)"
                                   id="g6266"><g
                                   id="g6272"><g
                                   id="g6274"><g
                                   clip-path="url(#clipPath6278)"
                                   id="g6276"><g
                                   id="g6282"><path
                                   id="path6284"
                                   style="fill:#7a0126;fill-opacity:1;fill-rule:nonzero;stroke:none"
                                   d="M 0,0 24,0 24,24 0,24 0,0 Z" /></g></g></g></g></g></g></g></g></g></g></g></g></g></g></g></g></g></g></g></g></g></svg>