<?xml version="1.0" encoding="UTF-8" standalone="no"?>
<svg
   xmlns:dc="http://purl.org/dc/elements/1.1/"
   xmlns:cc="http://creativecommons.org/ns#"
   xmlns:rdf="http://www.w3.org/1999/02/22-rdf-syntax-ns#"
   xmlns:svg="http://www.w3.org/2000/svg"
   xmlns="http://www.w3.org/2000/svg"
   viewBox="0 0 30 30"
   height="30"
   width="30"
   xml:space="preserve"
   version="1.1"
   id="svg2"><metadata
     id="metadata8"><rdf:RDF><cc:Work
         rdf:about=""><dc:format>image/svg+xml</dc:format><dc:type
           rdf:resource="http://purl.org/dc/dcmitype/StillImage" /><dc:title></dc:title></cc:Work></rdf:RDF></metadata><defs
     id="defs6"><clipPath
       id="clipPath18"
       clipPathUnits="userSpaceOnUse"><path
         id="path20"
         d="M 21,21 3,21 C 1.89,21 1,20.11 1,19 L 1,7 C 1,5.9 1.89,5 3,5 l 5,0 0,-2 8,0 0,2 5,0 c 1.1,0 1.99,0.9 1.99,2 L 23,19 c 0,1.11 -0.9,2 -2,2 z M 21,7 3,7 3,19 21,19 21,7 Z m -5,6 -7,-4 0,8 7,-4 z" /></clipPath><clipPath
       id="clipPath24"
       clipPathUnits="userSpaceOnUse"><path
         id="path26"
         d="m -4,-2 32,0 0,28 -32,0 0,-28 z" /></clipPath><clipPath
       id="clipPath28"
       clipPathUnits="userSpaceOnUse"><path
         id="path30"
         d="M 1,3 23,3 23,21 1,21 1,3 Z" /></clipPath><clipPath
       id="clipPath32"
       clipPathUnits="userSpaceOnUse"><path
         style="clip-rule:evenodd"
         id="path34"
         d="M 0,24 24,24 24,0 0,0 0,24 Z" /></clipPath><clipPath
       id="clipPath36"
       clipPathUnits="userSpaceOnUse"><path
         id="path38"
         d="M 1,3 23,3 23,21 1,21 1,3 Z" /></clipPath></defs><g
     transform="matrix(1.25,0,0,-1.25,0,30)"
     id="g10"><g
       id="g12" /><g
       style="fill:#ff7e00;fill-opacity:1"
       id="g14"><g
         style="fill:#ff7e00;fill-opacity:1"
         clip-path="url(#clipPath18)"
         id="g16"><g
           style="fill:#ff7e00;fill-opacity:1"
           id="g22" /><g
           style="fill:#ff7e00;fill-opacity:1"
           id="g40"><g
             style="fill:#ff7e00;fill-opacity:1"
             id="g42"
             clip-path="url(#clipPath24)"><g
               style="fill:#ff7e00;fill-opacity:1"
               id="g44" /><g
               style="fill:#ff7e00;fill-opacity:1"
               id="g46"><g
                 style="fill:#ff7e00;fill-opacity:1"
                 id="g48"
                 clip-path="url(#clipPath28)"><path
                   id="path50"
                   style="fill:#ff7e00;fill-opacity:1;fill-rule:nonzero;stroke:none"
                   d="m -4,-2 32,0 0,28 -32,0 0,-28 z" /></g></g><g
               style="fill:#ff7e00;fill-opacity:1"
               id="g52"><g
                 style="fill:#ff7e00;fill-opacity:1"
                 id="g54"
                 clip-path="url(#clipPath32)"><g
                   style="fill:#ff7e00;fill-opacity:1"
                   id="g56"
                   clip-path="url(#clipPath36)"><path
                     id="path58"
                     style="fill:#ff7e00;fill-opacity:1;fill-rule:nonzero;stroke:none"
                     d="m -5,-5 34,0 0,34 -34,0 0,-34 z" /></g></g></g></g></g></g></g></g></svg>