<?xml version="1.0" encoding="UTF-8" standalone="no"?>
<svg
   xmlns:dc="http://purl.org/dc/elements/1.1/"
   xmlns:cc="http://creativecommons.org/ns#"
   xmlns:rdf="http://www.w3.org/1999/02/22-rdf-syntax-ns#"
   xmlns:svg="http://www.w3.org/2000/svg"
   xmlns="http://www.w3.org/2000/svg"
   viewBox="0 0 30 30"
   height="30"
   width="30"
   xml:space="preserve"
   version="1.1"
   id="svg4234"><metadata
     id="metadata4240"><rdf:RDF><cc:Work
         rdf:about=""><dc:format>image/svg+xml</dc:format><dc:type
           rdf:resource="http://purl.org/dc/dcmitype/StillImage" /><dc:title></dc:title></cc:Work></rdf:RDF></metadata><defs
     id="defs4238"><clipPath
       id="clipPath4250"
       clipPathUnits="userSpaceOnUse"><path
         id="path4252"
         d="M 2,23 21,23 21,1 2,1 2,23 Z" /></clipPath><clipPath
       id="clipPath4256"
       clipPathUnits="userSpaceOnUse"><path
         id="path4258"
         d="m 13.488,18.52 c 1.102,0 2,0.902 2,2 0,1.101 -0.898,2 -2,2 -1.097,0 -2,-0.899 -2,-2 0,-1.098 0.903,-2 2,-2 z M 9.891,4.621 l 1,4.399 2.097,-2 0,-6 2,0 0,7.5 -2.097,2 0.597,3 c 1.301,-1.5 3.301,-2.5 5.5,-2.5 l 0,2 c -1.898,0 -3.5,1 -4.297,2.402 l -1,1.598 c -0.402,0.601 -1,1 -1.703,1 -0.297,0 -0.5,-0.098 -0.797,-0.098 l -5.203,-2.203 0,-4.699 2,0 0,3.402 1.801,0.699 -1.598,-8.101 -4.902,1 -0.398,-2 7,-1.399 z M 19,1 c 1.105,0 2,0.895 2,2 0,1.105 -0.895,2 -2,2 -1.105,0 -2,-0.895 -2,-2 0,-1.105 0.895,-2 2,-2 z" /></clipPath><clipPath
       id="clipPath4266"
       clipPathUnits="userSpaceOnUse"><path
         id="path4268"
         d="M 0,0 24,0 24,24 0,24 0,0 Z" /></clipPath><clipPath
       id="clipPath4278"
       clipPathUnits="userSpaceOnUse"><path
         id="path4280"
         d="M 0,0 24,0 24,24 0,24 0,0 Z" /></clipPath><clipPath
       id="clipPath4288"
       clipPathUnits="userSpaceOnUse"><path
         id="path4290"
         d="M 2,23 21,23 21,0 2,0 2,23 Z" /></clipPath><clipPath
       id="clipPath4298"
       clipPathUnits="userSpaceOnUse"><path
         id="path4300"
         d="M 0,0 24,0 24,24 0,24 0,0 Z" /></clipPath><clipPath
       id="clipPath4314"
       clipPathUnits="userSpaceOnUse"><path
         id="path4316"
         d="M 2,0 21,0 21,23 2,23 2,0 Z" /></clipPath><clipPath
       id="clipPath4324"
       clipPathUnits="userSpaceOnUse"><path
         id="path4326"
         d="M 2,23 21,23 21,0 2,0 2,23 Z" /></clipPath><clipPath
       id="clipPath4334"
       clipPathUnits="userSpaceOnUse"><path
         id="path4336"
         d="M 0,0 24,0 24,24 0,24 0,0 Z" /></clipPath></defs><g
     transform="matrix(1.25,0,0,-1.25,0,30)"
     id="g4242"><g
       id="g4244" /><g
       id="g4246"><g
         clip-path="url(#clipPath4250)"
         id="g4248"><g
           clip-path="url(#clipPath4256)"
           id="g4254"><g
             id="g4260"><g
               id="g4262"><g
                 clip-path="url(#clipPath4266)"
                 id="g4264"><g
                   id="g4270"><g
                     id="g4272"><g
                       id="g4274"><g
                         clip-path="url(#clipPath4278)"
                         id="g4276"><g
                           id="g4282" /><g
                           id="g4284"><g
                             clip-path="url(#clipPath4288)"
                             id="g4286"><g
                               id="g4292"><g
                                 id="g4294"><g
                                   clip-path="url(#clipPath4298)"
                                   id="g4296"><g
                                   id="g4302"><path
                                   id="path4304"
                                   style="fill:#7a0126;fill-opacity:1;fill-rule:nonzero;stroke:none"
                                   d="M 0,0 24,0 24,24 0,24 0,0 Z" /></g></g></g></g></g></g><g
                           id="g4306"><g
                             id="g4308"><g
                               id="g4310"><g
                                 clip-path="url(#clipPath4314)"
                                 id="g4312"><g
                                   id="g4318" /><g
                                   id="g4320"><g
                                   clip-path="url(#clipPath4324)"
                                   id="g4322"><g
                                   id="g4328"><g
                                   id="g4330"><g
                                   clip-path="url(#clipPath4334)"
                                   id="g4332"><g
                                   id="g4338"><path
                                   id="path4340"
                                   style="fill:#7a0126;fill-opacity:1;fill-rule:nonzero;stroke:none"
                                   d="M 0,0 24,0 24,24 0,24 0,0 Z" /></g></g></g></g></g></g></g></g></g></g></g></g></g></g></g></g></g></g></g></g></g></svg>